<?xml version="1.0" encoding="UTF-8" standalone="no"?>
<svg
   version="1.1"
   viewBox="0 0 50 50"
   width="50"
   height="50"
   xmlns="http://www.w3.org/2000/svg"
   xmlns:svg="http://www.w3.org/2000/svg">
  <path
     d="M 25,50 C 38.807291,50 50,38.807291 50,25 50,11.192708 38.807291,0 25,0 11.192708,0 0,11.192708 0,25 0,38.807291 11.192708,50 25,50 Z m 0,-3 C 37.150521,47 47,37.150521 47,25 47,12.849479 37.150521,3 25,3 12.849479,3 3,12.849479 3,25 3,37.150521 12.849479,47 25,47 Z M 25.01406,8.5697916 c -9.246875,0 -16.7223954,7.5302084 -16.7223954,16.8468754 0,7.446874 4.7896874,13.75052 11.4343754,15.98177 0.830729,0.167724 1.135052,-0.362489 1.135052,-0.808489 0,-0.390558 -0.02739,-1.729271 -0.02739,-3.124115 -4.651771,1.004271 -5.620312,-2.008229 -5.620312,-2.008229 -0.747553,-1.952448 -1.855209,-2.454219 -1.855209,-2.454219 -1.5225,-1.032031 0.110901,-1.032031 0.110901,-1.032031 1.688854,0.111589 2.575052,1.729271 2.575052,1.729271 1.494792,2.565833 3.90349,1.840833 4.872552,1.394479 0.138287,-1.087813 0.581563,-1.840833 1.052188,-2.259115 -3.710104,-0.390557 -7.613542,-1.840833 -7.613542,-8.311979 0,-1.840833 0.664063,-3.346927 1.71625,-4.518281 -0.16601,-0.418281 -0.747552,-2.147865 0.166354,-4.462812 0,0 1.41198,-0.446349 4.595625,1.72927 a 16.077604,16.077604 0 0 1 4.180782,-0.557916 c 1.411979,0 2.851302,0.195448 4.180416,0.557916 3.184011,-2.175625 4.59599,-1.72927 4.59599,-1.72927 0.913906,2.314947 0.332026,4.044531 0.16601,4.462812 1.079948,1.171302 1.716615,2.677396 1.716615,4.518281 0,6.470834 -3.90349,7.893229 -7.641146,8.311979 0.609271,0.529844 1.135052,1.533802 1.135052,3.12375 0,2.259115 -0.02739,4.07224 -0.02739,4.629844 0,0.446349 0.304641,0.976563 1.135053,0.809167 6.644791,-2.231771 11.434374,-8.534896 11.434374,-15.981771 0.02738,-9.316146 -7.47552,-16.8468749 -16.694791,-16.8468749 z"
     fill-rule="evenodd" />
</svg>
