<?xml version="1.0" encoding="UTF-8"?>
<svg version="1.1" viewBox="0 0 98 96" xmlns="http://www.w3.org/2000/svg">
    <path
        d="M48 96c26.51 0 48-21.49 48-48s-21.49-48-48-48-48 21.49-48 48 21.49 48 48 48zm0-5.76c23.329 0 42.24-18.911 42.24-42.24s-18.911-42.24-42.24-42.24-42.24 18.911-42.24 42.24 18.911 42.24 42.24 42.24z M48.027 16.454c-17.754 0-32.107 14.458-32.107 32.346 0 14.298 9.1962 26.401 21.954 30.685 1.595 0.32203 2.1793-0.69598 2.1793-1.5523 0-0.74987-0.05259-3.3202-0.05259-5.9983-8.9314 1.9282-10.791-3.8558-10.791-3.8558-1.4353-3.7487-3.562-4.7121-3.562-4.7121-2.9232-1.9815 0.21293-1.9815 0.21293-1.9815 3.2426 0.21425 4.9441 3.3202 4.9441 3.3202 2.87 4.9264 7.4947 3.5344 9.3553 2.6774 0.26551-2.0886 1.1166-3.5344 2.0202-4.3375-7.1234-0.74987-14.618-3.5344-14.618-15.959 0-3.5344 1.275-6.4261 3.2952-8.6751-0.31874-0.8031-1.4353-4.1239 0.3194-8.5686 0 0 2.711-0.85699 8.8236 3.3202a30.869 30.869 0 0 1 8.0271-1.0712c2.711 0 5.4745 0.37526 8.0264 1.0712 6.1133-4.1772 8.8243-3.3202 8.8243-3.3202 1.7547 4.4447 0.63749 7.7655 0.31874 8.5686 2.0735 2.2489 3.2959 5.1406 3.2959 8.6751 0 12.424-7.4947 15.155-14.671 15.959 1.1698 1.0173 2.1793 2.9449 2.1793 5.9976 0 4.3375-0.05259 7.8187-0.05259 8.8893 0 0.85699 0.58491 1.875 2.1793 1.5536 12.758-4.285 21.954-16.387 21.954-30.685 0.052571-17.887-14.353-32.346-32.054-32.346z"
        fill="#24292f" fill-rule="evenodd" />
</svg>