<svg xmlns="http://www.w3.org/2000/svg" xmlns:xlink="http://www.w3.org/1999/xlink" version="1.2" width="117.32mm" height="17.15mm" viewBox="8.4758 -4.3254 66.7612 9.7619">
<style type="text/css">
<![CDATA[
tspan { white-space: pre; }
]]>
</style>
<g transform="translate(9.9258, 0.1365)">
<path transform="scale(0.0040, -0.0040)" d="M0 0c0 31 25 56 56 56s56 -25 56 -56s-25 -56 -56 -56s-56 25 -56 56z" fill="currentColor"/>
</g>
<g transform="translate(9.9258, 3.1365)">
<path transform="scale(0.0040, -0.0040)" d="M0 0c0 31 25 56 56 56s56 -25 56 -56s-25 -56 -56 -56s-56 25 -56 56z" fill="currentColor"/>
</g>
<g transform="translate(9.4358, 1.6365)">
<rect x="0.0000" y="-3.7500" width="0.1900" height="7.5000" ry="0.0000" fill="currentColor"/>
</g>
<g transform="translate(8.5358, 1.6365)">
<rect x="0.0000" y="-3.7500" width="0.6000" height="7.5000" ry="0.0000" fill="currentColor"/>
</g>
<g transform="translate(8.5358, 5.3865)">
<line stroke-linejoin="round" stroke-linecap="round" stroke-width="0.1000" stroke="currentColor" x1="0.0500" y1="0" x2="66.6512" y2="0"/>
</g>
<g transform="translate(8.5358, 3.8865)">
<line stroke-linejoin="round" stroke-linecap="round" stroke-width="0.1000" stroke="currentColor" x1="0.0500" y1="0" x2="66.6512" y2="0"/>
</g>
<g transform="translate(8.5358, 2.3865)">
<line stroke-linejoin="round" stroke-linecap="round" stroke-width="0.1000" stroke="currentColor" x1="0.0500" y1="0" x2="66.6512" y2="0"/>
</g>
<g transform="translate(8.5358, 0.8865)">
<line stroke-linejoin="round" stroke-linecap="round" stroke-width="0.1000" stroke="currentColor" x1="0.0500" y1="0" x2="66.6512" y2="0"/>
</g>
<g transform="translate(8.5358, -0.6135)">
<line stroke-linejoin="round" stroke-linecap="round" stroke-width="0.1000" stroke="currentColor" x1="0.0500" y1="0" x2="66.6512" y2="0"/>
</g>
<g transform="translate(8.5358, -2.1135)">
<line stroke-linejoin="round" stroke-linecap="round" stroke-width="0.1000" stroke="currentColor" x1="0.0500" y1="0" x2="66.6512" y2="0"/>
</g>
<g transform="translate(73.3970, 0.1365)">
<path transform="scale(0.0040, -0.0040)" d="M0 0c0 31 25 56 56 56s56 -25 56 -56s-25 -56 -56 -56s-56 25 -56 56z" fill="currentColor"/>
</g>
<g transform="translate(73.3970, 3.1365)">
<path transform="scale(0.0040, -0.0040)" d="M0 0c0 31 25 56 56 56s56 -25 56 -56s-25 -56 -56 -56s-56 25 -56 56z" fill="currentColor"/>
</g>
<g transform="translate(74.6370, 1.6365)">
<rect x="0.0000" y="-3.7500" width="0.6000" height="7.5000" ry="0.0000" fill="currentColor"/>
</g>
<g transform="translate(74.1470, 1.6365)">
<rect x="0.0000" y="-3.7500" width="0.1900" height="7.5000" ry="0.0000" fill="currentColor"/>
</g>
<g transform="translate(54.8495, 1.6365)">
<rect x="0.0000" y="-3.7500" width="0.1900" height="7.5000" ry="0.0000" fill="currentColor"/>
</g>
<g transform="translate(37.9061, 1.6365)">
<rect x="0.0000" y="-3.7500" width="0.1900" height="7.5000" ry="0.0000" fill="currentColor"/>
</g>
<g transform="translate(30.0396, 1.6365)">
<rect x="0.0000" y="-3.7500" width="0.1900" height="7.5000" ry="0.0000" fill="currentColor"/>
</g>
<g color="rgb(100.0000%, 100.0000%, 100.0000%)">
<g transform="translate(48.6730, 0.8865)">
<rect x="0.0888" y="-0.5900" width="0.8877" height="1.1799" ry="0.0000" fill="currentColor"/>
</g>
</g>
<g transform="translate(48.7618, 1.4765)">
<text font-family="serif" font-weight="bold" font-size="1.7459" text-anchor="start" fill="currentColor">
<tspan>2</tspan>
</text>
</g>
<g id="diagram-label">
<g transform="translate(11.7213, -2.6889)">
<text font-family="Roboto" font-weight="bold" font-style="italic" font-size="2.2646" text-anchor="start" fill="currentColor">
<tspan>G</tspan>
</text>
</g>
</g>
<g color="rgb(100.0000%, 100.0000%, 100.0000%)">
<g transform="translate(11.7213, 0.8865)">
<rect x="0.0888" y="-0.5900" width="0.8877" height="1.1799" ry="0.0000" fill="currentColor"/>
</g>
</g>
<g transform="translate(11.8101, 1.4765)">
<text font-family="serif" font-weight="bold" font-size="1.7459" text-anchor="start" fill="currentColor">
<tspan>2</tspan>
</text>
</g>
<g transform="translate(58.1615, 1.6365)">
<path stroke-width="0.0800" stroke-linejoin="round" stroke-linecap="round" stroke="currentColor" fill="currentColor" d="M0.5326 -1.5918C1.1612 -2.2894 2.0806 -2.2894 2.7091 -1.5918L2.7091 -1.5918C2.0806 -2.1694 1.1612 -2.1694 0.5326 -1.5918z"/>
</g>
<g color="rgb(100.0000%, 100.0000%, 100.0000%)">
<g transform="translate(15.7213, 0.8865)">
<rect x="0.0888" y="-0.5900" width="0.8877" height="1.1799" ry="0.0000" fill="currentColor"/>
</g>
</g>
<g transform="translate(15.8101, 1.4765)">
<text font-family="serif" font-weight="bold" font-size="1.7459" text-anchor="start" fill="currentColor">
<tspan>4</tspan>
</text>
</g>
<g transform="translate(0.0000, 1.6365)">
<line stroke-linejoin="round" stroke-linecap="round" stroke-width="0.2000" stroke="currentColor" x1="49.9412" y1="-0.4453" x2="52.4701" y2="-1.0547"/>
</g>
<g color="rgb(100.0000%, 100.0000%, 100.0000%)">
<g transform="translate(22.7010, -0.6135)">
<rect x="0.0683" y="-0.4683" width="0.6829" height="0.9366" ry="0.0000" fill="currentColor"/>
</g>
</g>
<g transform="translate(22.7693, -0.1642)">
<text font-family="serif" font-weight="bold" font-size="1.3862" text-anchor="start" fill="currentColor">
<tspan>5</tspan>
</text>
</g>
<g color="rgb(100.0000%, 100.0000%, 100.0000%)">
<g transform="translate(26.7010, -0.6135)">
<rect x="0.0888" y="-0.5900" width="0.8877" height="1.1799" ry="0.0000" fill="currentColor"/>
</g>
</g>
<g transform="translate(26.7898, -0.0474)">
<text font-family="serif" font-weight="bold" font-size="1.7459" text-anchor="start" fill="currentColor">
<tspan>7</tspan>
</text>
</g>
<g transform="translate(39.0416, 1.6365)">
<path stroke-width="0.0800" stroke-linejoin="round" stroke-linecap="round" stroke="currentColor" fill="currentColor" d="M0.5006 -1.5650C1.0646 -2.2229 1.9848 -2.3231 2.6771 -1.8019L2.6771 -1.8019C1.9978 -2.2038 1.0776 -2.1036 0.5006 -1.5650z"/>
</g>
<g id="diagram-label">
<g transform="translate(32.1296, -2.6889)">
<text font-family="Roboto" font-weight="bold" font-style="italic" font-size="2.2646" text-anchor="start" fill="currentColor">
<tspan>E</tspan>
</text>
</g>
<g transform="translate(33.3587, -2.6889)">
<text font-family="Roboto" font-weight="bold" font-style="italic" font-size="2.2646" text-anchor="start" fill="currentColor">
<tspan>m</tspan>
</text>
</g>
</g>
<g color="rgb(100.0000%, 100.0000%, 100.0000%)">
<g transform="translate(32.1296, -0.6135)">
<rect x="0.0888" y="-0.5900" width="0.8877" height="1.1799" ry="0.0000" fill="currentColor"/>
</g>
</g>
<g transform="translate(32.2183, -0.0474)">
<text font-family="serif" font-weight="bold" font-size="1.7459" text-anchor="start" fill="currentColor">
<tspan>5</tspan>
</text>
</g>
<g transform="translate(0.0000, 1.6365)">
<line stroke-linejoin="round" stroke-linecap="round" stroke-width="0.2000" stroke="currentColor" x1="23.7448" y1="-1.9408" x2="26.4971" y2="-2.5592"/>
</g>
<g id="diagram-label">
<g transform="translate(39.0416, -2.6889)">
<text font-family="Roboto" font-weight="bold" font-style="italic" font-size="2.2646" text-anchor="start" fill="currentColor">
<tspan>C</tspan>
</text>
</g>
</g>
<g color="rgb(100.0000%, 100.0000%, 100.0000%)">
<g transform="translate(39.0416, 0.8865)">
<rect x="0.0888" y="-0.5900" width="0.8877" height="1.1799" ry="0.0000" fill="currentColor"/>
</g>
</g>
<g transform="translate(39.1303, 1.4765)">
<text font-family="serif" font-weight="bold" font-size="1.7459" text-anchor="start" fill="currentColor">
<tspan>2</tspan>
</text>
</g>
<g color="rgb(100.0000%, 100.0000%, 100.0000%)">
<g transform="translate(41.2181, 0.8865)">
<rect x="0.0888" y="-0.6019" width="0.8877" height="1.2038" ry="0.0000" fill="currentColor"/>
</g>
</g>
<g transform="translate(41.3068, 1.4645)">
<text font-family="serif" font-weight="bold" font-size="1.7459" text-anchor="start" fill="currentColor">
<tspan>0</tspan>
</text>
</g>
<g transform="translate(62.5145, 1.6365)">
<path stroke-width="0.0800" stroke-linejoin="round" stroke-linecap="round" stroke="currentColor" fill="currentColor" d="M0.5326 -1.5918C1.1612 -2.2894 2.0806 -2.2894 2.7091 -1.5918L2.7091 -1.5918C2.0806 -2.1694 1.1612 -2.1694 0.5326 -1.5918z"/>
</g>
<g transform="translate(0.0000, 1.6365)">
<line stroke-linejoin="round" stroke-linecap="round" stroke-width="0.2000" stroke="currentColor" x1="12.9895" y1="-0.4453" x2="15.5185" y2="-1.0547"/>
</g>
<g color="rgb(100.0000%, 100.0000%, 100.0000%)">
<g transform="translate(52.6730, 0.8865)">
<rect x="0.0888" y="-0.5900" width="0.8877" height="1.1799" ry="0.0000" fill="currentColor"/>
</g>
</g>
<g transform="translate(52.7618, 1.4526)">
<text font-family="serif" font-weight="bold" font-size="1.7459" text-anchor="start" fill="currentColor">
<tspan>7</tspan>
</text>
</g>
<g id="diagram-label">
<g transform="translate(55.9850, -2.6889)">
<text font-family="Roboto" font-weight="bold" font-style="italic" font-size="2.2646" text-anchor="start" fill="currentColor">
<tspan>D</tspan>
</text>
</g>
</g>
<g transform="translate(8.4758, 1.6365)">
<rect x="0.0000" y="-3.8000" width="0.1600" height="7.6000" ry="0.0500" fill="currentColor"/>
</g>
<g color="rgb(100.0000%, 100.0000%, 100.0000%)">
<g transform="translate(58.1615, 0.8865)">
<rect x="0.0888" y="-0.5900" width="0.8877" height="1.1799" ry="0.0000" fill="currentColor"/>
</g>
</g>
<g transform="translate(58.2503, 1.4526)">
<text font-family="serif" font-weight="bold" font-size="1.7459" text-anchor="start" fill="currentColor">
<tspan>7</tspan>
</text>
</g>
<g color="rgb(100.0000%, 100.0000%, 100.0000%)">
<g transform="translate(60.3380, 0.8865)">
<rect x="0.0888" y="-0.5900" width="0.8877" height="1.1799" ry="0.0000" fill="currentColor"/>
</g>
</g>
<g transform="translate(60.4268, 1.4526)">
<text font-family="serif" font-weight="bold" font-size="1.7459" text-anchor="start" fill="currentColor">
<tspan>5</tspan>
</text>
</g>
<g color="rgb(100.0000%, 100.0000%, 100.0000%)">
<g transform="translate(62.5145, 0.8865)">
<rect x="0.0888" y="-0.5900" width="0.8877" height="1.1799" ry="0.0000" fill="currentColor"/>
</g>
</g>
<g transform="translate(62.6033, 1.4526)">
<text font-family="serif" font-weight="bold" font-size="1.7459" text-anchor="start" fill="currentColor">
<tspan>5</tspan>
</text>
</g>
<g color="rgb(100.0000%, 100.0000%, 100.0000%)">
<g transform="translate(64.6910, 0.8865)">
<rect x="0.0888" y="-0.5900" width="0.8877" height="1.1799" ry="0.0000" fill="currentColor"/>
</g>
</g>
<g transform="translate(64.7798, 1.4765)">
<text font-family="serif" font-weight="bold" font-size="1.7459" text-anchor="start" fill="currentColor">
<tspan>4</tspan>
</text>
</g>
<g color="rgb(100.0000%, 100.0000%, 100.0000%)">
<g transform="translate(66.8675, 0.8865)">
<rect x="0.0888" y="-0.5900" width="0.8877" height="1.1799" ry="0.0000" fill="currentColor"/>
</g>
</g>
<g transform="translate(66.9563, 1.4765)">
<text font-family="serif" font-weight="bold" font-size="1.7459" text-anchor="start" fill="currentColor">
<tspan>4</tspan>
</text>
</g>
<g color="rgb(100.0000%, 100.0000%, 100.0000%)">
<g transform="translate(69.0440, 0.8865)">
<rect x="0.0888" y="-0.5900" width="0.8877" height="1.1799" ry="0.0000" fill="currentColor"/>
</g>
</g>
<g transform="translate(69.1328, 1.4765)">
<text font-family="serif" font-weight="bold" font-size="1.7459" text-anchor="start" fill="currentColor">
<tspan>2</tspan>
</text>
</g>
<g color="rgb(100.0000%, 100.0000%, 100.0000%)">
<g transform="translate(71.2205, 0.8865)">
<rect x="0.0888" y="-0.5900" width="0.8877" height="1.1799" ry="0.0000" fill="currentColor"/>
</g>
</g>
<g transform="translate(71.3093, 1.4765)">
<text font-family="serif" font-weight="bold" font-size="1.7459" text-anchor="start" fill="currentColor">
<tspan>2</tspan>
</text>
</g>
<g transform="translate(66.8675, 1.6365)">
<path stroke-width="0.0800" stroke-linejoin="round" stroke-linecap="round" stroke="currentColor" fill="currentColor" d="M0.5326 -1.5918C1.1612 -2.2894 2.0806 -2.2894 2.7091 -1.5918L2.7091 -1.5918C2.0806 -2.1694 1.1612 -2.1694 0.5326 -1.5918z"/>
</g>
</svg>
