<!-- ORIGINAL
<svg xmlns="http://www.w3.org/2000/svg"  preserveAspectRatio="none">
    <g id="bubble">
        <path d="M464.76 221.12c-16.27 0-32.53 0-48.8 0-28.86 30.85-57.7 61.7-86.57 92.56-28.86-30.86-57.7-61.7-86.57-92.56-24.7 0-49.43 0-74.14 0 0 0 0 0 .02 0-27.8 0-55.62 0-83.43 0C42.9 221.12.54 178.76.54 136.4c0-17.05 0-34.1 0-51.15C.55 42.9 42.9.55 85.28.55c162.75 0 325.5 0 488.25 0 42.37 0 84.74 42.35 84.74 84.7 0 17.06 0 34.1 0 51.15 0 42.37-42.37 84.73-84.74 84.73-36.26 0-72.52 0-108.8 0" />
    </g>
</svg>
-->

<!-- EDITED FOR USE AS BACKGROUND IMAGE -->
<!--677.82, 331.462018221 = 2.04 (~2.1)-->
<!--  * 16.35 -->
<svg xmlns="http://www.w3.org/2000/svg" viewBox="-5, -5, 670.82, 326.462018221" preserveAspectRatio="none">
    <defs>
        <style>
            path {
                fill: #e0e3e1;
                stroke: #42463F;
                stroke-width: 10px;
            }
        </style>
    </defs>
    <path id="bubble" d="M464.76 221.12c-16.27 0-32.53 0-48.8 0-28.86 30.85-57.7 61.7-86.57 92.56-28.86-30.86-57.7-61.7-86.57-92.56-24.7 0-49.43 0-74.14 0 0 0 0 0 .02 0-27.8 0-55.62 0-83.43 0C42.9 221.12.54 178.76.54 136.4c0-17.05 0-34.1 0-51.15C.55 42.9 42.9.55 85.28.55c162.75 0 325.5 0 488.25 0 42.37 0 84.74 42.35 84.74 84.7 0 17.06 0 34.1 0 51.15 0 42.37-42.37 84.73-84.74 84.73-36.26 0-72.52 0-108.8 0" />
</svg>
