<?xml-stylesheet type="text/css" href="/css/ly-svg.css" ?>
<svg xmlns="http://www.w3.org/2000/svg" xmlns:xlink="http://www.w3.org/1999/xlink" version="1.2" width="124.32mm" height="26.05mm" viewBox="-0.0600 -6.5000 70.7476 14.8267">
<style type="text/css">
<![CDATA[
tspan { white-space: pre; }
]]>
</style>
<g transform="translate(20.3901, 2.5767)">
<rect x="0.0000" y="-3.7500" width="0.1900" height="7.5000" ry="0.0000" fill="currentColor"/>
</g>
<g transform="translate(0.0000, 6.3267)">
<line stroke-linejoin="round" stroke-linecap="round" stroke-width="0.1000" stroke="currentColor" x1="0.0500" y1="0" x2="70.6376" y2="0"/>
</g>
<g transform="translate(0.0000, 4.8267)">
<line stroke-linejoin="round" stroke-linecap="round" stroke-width="0.1000" stroke="currentColor" x1="0.0500" y1="0" x2="70.6376" y2="0"/>
</g>
<g transform="translate(0.0000, 3.3267)">
<line stroke-linejoin="round" stroke-linecap="round" stroke-width="0.1000" stroke="currentColor" x1="0.0500" y1="0" x2="70.6376" y2="0"/>
</g>
<g transform="translate(0.0000, 1.8267)">
<line stroke-linejoin="round" stroke-linecap="round" stroke-width="0.1000" stroke="currentColor" x1="0.0500" y1="0" x2="70.6376" y2="0"/>
</g>
<g transform="translate(0.0000, 0.3267)">
<line stroke-linejoin="round" stroke-linecap="round" stroke-width="0.1000" stroke="currentColor" x1="0.0500" y1="0" x2="70.6376" y2="0"/>
</g>
<g transform="translate(0.0000, -1.1733)">
<line stroke-linejoin="round" stroke-linecap="round" stroke-width="0.1000" stroke="currentColor" x1="0.0500" y1="0" x2="70.6376" y2="0"/>
</g>
<g transform="translate(70.4976, 2.5767)">
<rect x="0.0000" y="-3.7500" width="0.1900" height="7.5000" ry="0.0000" fill="currentColor"/>
</g>
<g transform="translate(56.7744, 2.5767)">
<rect x="0.0000" y="-3.7500" width="0.1900" height="7.5000" ry="0.0000" fill="currentColor"/>
</g>
<g transform="translate(34.3378, 2.5767)">
<rect x="0.0000" y="-3.7500" width="0.1900" height="7.5000" ry="0.0000" fill="currentColor"/>
</g>
<g transform="translate(36.0869, -1.8833)">
<path transform="scale(0.0040, -0.0040)" d="M0 0v-250h-16v250h16zM0 0c0 -197 207 -336 207 -533c0 -71 -15 -141 -41 -207c-5 -8 -13 -12 -20 -12c-13 0 -26 11 -23 27c26 61 42 126 42 192c0 103 -94 208 -165 283v250z" fill="currentColor"/>
</g>
<g class="chord-label">
<g transform="translate(4.2182, -3.9233)">
<text font-family="Roboto" font-weight="bold" font-style="italic" font-size="2.6165" text-anchor="start" fill="currentColor">
<tspan>A</tspan>
</text>
</g>
<g transform="translate(5.9253, -3.9233)">
<text font-family="Roboto" font-weight="bold" font-style="italic" font-size="2.6165" text-anchor="start" fill="currentColor">
<tspan>m</tspan>
</text>
</g>
</g>
<g class="tab-note">
<g color="rgb(100.0000%, 100.0000%, 100.0000%)">
<g transform="translate(4.4682, 4.8267)">
<rect x="0.0990" y="-0.5806" width="0.9902" height="1.1611" ry="0.0000" fill="currentColor"/>
</g>
</g>
<g transform="translate(4.5672, 5.3880)">
<text font-family="Roboto Serif" font-weight="bold" font-size="1.7459" text-anchor="start" fill="currentColor">
<tspan>0</tspan>
</text>
</g>
</g>
<g class="tab-note">
<g color="rgb(100.0000%, 100.0000%, 100.0000%)">
<g transform="translate(4.4682, 3.3267)">
<rect x="0.0990" y="-0.5701" width="0.9902" height="1.1402" ry="0.0000" fill="currentColor"/>
</g>
</g>
<g transform="translate(4.5672, 3.8968)">
<text font-family="Roboto Serif" font-weight="bold" font-size="1.7459" text-anchor="start" fill="currentColor">
<tspan>2</tspan>
</text>
</g>
</g>
<g transform="translate(1.0512, 2.5767)">
<text font-family="emmentaler-20" font-size="3.9999" text-anchor="start" fill="currentColor">
<tspan>9</tspan>
</text>
</g>
<g transform="translate(1.0000, 4.5767)">
<text font-family="emmentaler-20" font-size="3.9999" text-anchor="start" fill="currentColor">
<tspan>8</tspan>
</text>
</g>
<g transform="translate(5.0623, 2.5767)">
<rect x="-0.0650" y="-4.5000" width="0.1300" height="4.4662" ry="0.0400" fill="currentColor"/>
</g>
<g transform="translate(5.1273, -1.8833)">
<path transform="scale(0.0040, -0.0040)" d="M0 0v-250h-16v250h16zM0 0c0 -197 207 -336 207 -533c0 -71 -15 -141 -41 -207c-5 -8 -13 -12 -20 -12c-13 0 -26 11 -23 27c26 61 42 126 42 192c0 103 -94 208 -165 283v250z" fill="currentColor"/>
</g>
<g transform="translate(57.9154, 2.5767)">
<path stroke-width="0.0800" stroke-linejoin="round" stroke-linecap="round" stroke="currentColor" fill="currentColor" d="M1.2892 -3.3750C2.3570 -4.2676 7.3242 -4.2676 8.3921 -3.3750L8.3921 -3.3750C7.3242 -4.1476 2.3570 -4.1476 1.2892 -3.3750z"/>
</g>
<g class="tab-note">
<g color="rgb(100.0000%, 100.0000%, 100.0000%)">
<g transform="translate(6.7573, 1.8267)">
<rect x="0.0990" y="-0.5701" width="0.9902" height="1.1402" ry="0.0000" fill="currentColor"/>
</g>
</g>
<g transform="translate(6.8563, 2.3968)">
<text font-family="Roboto Serif" font-weight="bold" font-size="1.7459" text-anchor="start" fill="currentColor">
<tspan>2</tspan>
</text>
</g>
</g>
<g transform="translate(7.3514, 2.5767)">
<rect x="-0.0650" y="0.0196" width="0.1300" height="4.4804" ry="0.0400" fill="currentColor"/>
</g>
<g transform="translate(57.9154, 2.5767)">
<path stroke-width="0.0800" stroke-linejoin="round" stroke-linecap="round" stroke="currentColor" fill="currentColor" d="M1.2892 1.1788C2.3570 2.0714 7.3242 2.0714 8.3921 1.1788L8.3921 1.1788C7.3242 1.9514 2.3570 1.9514 1.2892 1.1788z"/>
</g>
<g class="chord-label">
<g transform="translate(9.9965, -3.9233)">
<text font-family="Roboto" font-weight="bold" font-style="italic" font-size="2.6165" text-anchor="start" fill="currentColor">
<tspan>C</tspan>
</text>
</g>
</g>
<g class="tab-note">
<g color="rgb(100.0000%, 100.0000%, 100.0000%)">
<g transform="translate(10.2465, 4.8267)">
<rect x="0.0990" y="-0.6347" width="0.9902" height="1.2694" ry="0.0000" fill="currentColor"/>
</g>
</g>
<g transform="translate(10.3455, 5.3322)">
<text font-family="Roboto Serif" font-weight="bold" font-size="1.7459" text-anchor="start" fill="currentColor">
<tspan>3</tspan>
</text>
</g>
</g>
<g class="tab-note">
<g color="rgb(100.0000%, 100.0000%, 100.0000%)">
<g transform="translate(10.2465, 3.3267)">
<rect x="0.0990" y="-0.5701" width="0.9902" height="1.1402" ry="0.0000" fill="currentColor"/>
</g>
</g>
<g transform="translate(10.3455, 3.8968)">
<text font-family="Roboto Serif" font-weight="bold" font-size="1.7459" text-anchor="start" fill="currentColor">
<tspan>2</tspan>
</text>
</g>
</g>
<g transform="translate(11.7857, 4.0767)">
<path transform="scale(0.0040, -0.0040)" d="M0 0c0 31 25 56 56 56s56 -25 56 -56s-25 -56 -56 -56s-56 25 -56 56z" fill="currentColor"/>
</g>
<g transform="translate(10.8406, 2.5767)">
<rect x="-0.0650" y="-4.5000" width="0.1300" height="4.3932" ry="0.0400" fill="currentColor"/>
</g>
<g transform="translate(11.7857, 2.5767)">
<path transform="scale(0.0040, -0.0040)" d="M0 0c0 31 25 56 56 56s56 -25 56 -56s-25 -56 -56 -56s-56 25 -56 56z" fill="currentColor"/>
</g>
<g transform="translate(50.9960, 2.5767)">
<path stroke-width="0.0800" stroke-linejoin="round" stroke-linecap="round" stroke="currentColor" fill="currentColor" d="M0.9591 -2.8575C1.5278 -3.9755 2.8852 -4.4379 3.9800 -3.8866L3.9800 -3.8866C2.9239 -4.3243 1.5665 -3.8619 0.9591 -2.8575z"/>
</g>
<g class="chord-label">
<g transform="translate(14.1876, -3.9233)">
<text font-family="Roboto" font-weight="bold" font-style="italic" font-size="2.6165" text-anchor="start" fill="currentColor">
<tspan>D</tspan>
</text>
</g>
<g transform="translate(15.8607, -5.1125)">
<text font-family="Roboto" font-weight="bold" font-style="italic" font-size="1.8500" text-anchor="start" fill="currentColor">
<tspan>add</tspan>
</text>
</g>
<g transform="translate(18.8653, -5.1125)">
<text font-family="Roboto" font-weight="bold" font-style="italic" font-size="1.8500" text-anchor="start" fill="currentColor">
<tspan>9</tspan>
</text>
</g>
</g>
<g class="tab-note">
<g color="rgb(100.0000%, 100.0000%, 100.0000%)">
<g transform="translate(14.4376, 4.8267)">
<rect x="0.0990" y="-0.6251" width="0.9902" height="1.2502" ry="0.0000" fill="currentColor"/>
</g>
</g>
<g transform="translate(14.5366, 5.3226)">
<text font-family="Roboto Serif" font-weight="bold" font-size="1.7459" text-anchor="start" fill="currentColor">
<tspan>5</tspan>
</text>
</g>
</g>
<g class="tab-note">
<g color="rgb(100.0000%, 100.0000%, 100.0000%)">
<g transform="translate(14.4376, 3.3267)">
<rect x="0.0990" y="-0.6120" width="0.9902" height="1.2240" ry="0.0000" fill="currentColor"/>
</g>
</g>
<g transform="translate(14.5366, 3.8287)">
<text font-family="Roboto Serif" font-weight="bold" font-size="1.7459" text-anchor="start" fill="currentColor">
<tspan>4</tspan>
</text>
</g>
</g>
<g transform="translate(15.0317, 2.5767)">
<rect x="-0.0650" y="-4.5000" width="0.1300" height="4.4061" ry="0.0400" fill="currentColor"/>
</g>
<g transform="translate(15.0967, -1.8833)">
<path transform="scale(0.0040, -0.0040)" d="M0 0v-250h-16v250h16zM0 0c0 -197 207 -336 207 -533c0 -71 -15 -141 -41 -207c-5 -8 -13 -12 -20 -12c-13 0 -26 11 -23 27c26 61 42 126 42 192c0 103 -94 208 -165 283v250z" fill="currentColor"/>
</g>
<g transform="translate(35.4278, 2.5767)">
<path stroke-width="0.0800" stroke-linejoin="round" stroke-linecap="round" stroke="currentColor" fill="currentColor" d="M1.7223 -0.5167C2.1341 -1.5567 3.4326 -2.2279 4.6038 -2.0062L4.6038 -2.0062C3.4877 -2.1213 2.1892 -1.4501 1.7223 -0.5167z"/>
</g>
<g class="tab-note">
<g color="rgb(100.0000%, 100.0000%, 100.0000%)">
<g transform="translate(16.7268, 3.3267)">
<rect x="0.0990" y="-0.6251" width="0.9902" height="1.2502" ry="0.0000" fill="currentColor"/>
</g>
</g>
<g transform="translate(16.8258, 3.8226)">
<text font-family="Roboto Serif" font-weight="bold" font-size="1.7459" text-anchor="start" fill="currentColor">
<tspan>5</tspan>
</text>
</g>
</g>
<g transform="translate(17.3209, 2.5767)">
<rect x="-0.0650" y="-4.5000" width="0.1300" height="4.4061" ry="0.0400" fill="currentColor"/>
</g>
<g transform="translate(21.4801, 2.5767)">
<path stroke-width="0.0800" stroke-linejoin="round" stroke-linecap="round" stroke="currentColor" fill="currentColor" d="M1.0191 -0.3750C2.1233 -1.2790 7.5579 -1.2790 8.6622 -0.3750L8.6622 -0.3750C7.5579 -1.1590 2.1233 -1.1590 1.0191 -0.3750z"/>
</g>
<g class="chord-label">
<g transform="translate(21.2301, -3.9233)">
<text font-family="Roboto" font-weight="bold" font-style="italic" font-size="2.6165" text-anchor="start" fill="currentColor">
<tspan>C</tspan>
</text>
</g>
</g>
<g class="tab-note">
<g color="rgb(100.0000%, 100.0000%, 100.0000%)">
<g transform="translate(21.4801, 4.8267)">
<rect x="0.0990" y="-0.6347" width="0.9902" height="1.2694" ry="0.0000" fill="currentColor"/>
</g>
</g>
<g transform="translate(21.5791, 5.3322)">
<text font-family="Roboto Serif" font-weight="bold" font-size="1.7459" text-anchor="start" fill="currentColor">
<tspan>3</tspan>
</text>
</g>
</g>
<g class="tab-note">
<g color="rgb(100.0000%, 100.0000%, 100.0000%)">
<g transform="translate(21.4801, 3.3267)">
<rect x="0.0990" y="-0.5701" width="0.9902" height="1.1402" ry="0.0000" fill="currentColor"/>
</g>
</g>
<g transform="translate(21.5791, 3.8968)">
<text font-family="Roboto Serif" font-weight="bold" font-size="1.7459" text-anchor="start" fill="currentColor">
<tspan>2</tspan>
</text>
</g>
</g>
<g transform="translate(23.0192, 4.0767)">
<path transform="scale(0.0040, -0.0040)" d="M0 0c0 31 25 56 56 56s56 -25 56 -56s-25 -56 -56 -56s-56 25 -56 56z" fill="currentColor"/>
</g>
<g transform="translate(21.8242, 2.5767)">
<rect x="-0.0650" y="-4.5000" width="0.1300" height="4.3932" ry="0.0400" fill="currentColor"/>
</g>
<g transform="translate(22.3242, 2.5767)">
<rect x="-0.0650" y="-4.5000" width="0.1300" height="4.3932" ry="0.0400" fill="currentColor"/>
</g>
<g transform="translate(23.0192, 2.5767)">
<path transform="scale(0.0040, -0.0040)" d="M0 0c0 31 25 56 56 56s56 -25 56 -56s-25 -56 -56 -56s-56 25 -56 56z" fill="currentColor"/>
</g>
<g transform="translate(21.4801, 2.5767)">
<path stroke-width="0.0800" stroke-linejoin="round" stroke-linecap="round" stroke="currentColor" fill="currentColor" d="M0.7941 3.7500C1.9265 4.6623 7.7547 4.6623 8.8872 3.7500L8.8872 3.7500C7.7547 4.5423 1.9265 4.5423 0.7941 3.7500z"/>
</g>
<g class="tab-note">
<g color="rgb(100.0000%, 100.0000%, 100.0000%)">
<g transform="translate(29.9732, 4.8267)">
<rect x="0.0990" y="-0.6347" width="0.9902" height="1.2694" ry="0.0000" fill="currentColor"/>
</g>
</g>
<g transform="translate(30.0722, 5.3322)">
<text font-family="Roboto Serif" font-weight="bold" font-size="1.7459" text-anchor="start" fill="currentColor">
<tspan>3</tspan>
</text>
</g>
</g>
<g class="tab-note">
<g color="rgb(100.0000%, 100.0000%, 100.0000%)">
<g transform="translate(29.9732, 3.3267)">
<rect x="0.0990" y="-0.5701" width="0.9902" height="1.1402" ry="0.0000" fill="currentColor"/>
</g>
</g>
<g transform="translate(30.0722, 3.8968)">
<text font-family="Roboto Serif" font-weight="bold" font-size="1.7459" text-anchor="start" fill="currentColor">
<tspan>2</tspan>
</text>
</g>
</g>
<g transform="translate(31.5123, 4.0767)">
<path transform="scale(0.0040, -0.0040)" d="M0 0c0 31 25 56 56 56s56 -25 56 -56s-25 -56 -56 -56s-56 25 -56 56z" fill="currentColor"/>
</g>
<g transform="translate(30.5673, 2.5767)">
<rect x="-0.0650" y="-4.5000" width="0.1300" height="4.3932" ry="0.0400" fill="currentColor"/>
</g>
<g transform="translate(31.5123, 2.5767)">
<path transform="scale(0.0040, -0.0040)" d="M0 0c0 31 25 56 56 56s56 -25 56 -56s-25 -56 -56 -56s-56 25 -56 56z" fill="currentColor"/>
</g>
<g transform="translate(14.4376, 2.5767)">
<path stroke-width="0.0800" stroke-linejoin="round" stroke-linecap="round" stroke="currentColor" fill="currentColor" d="M0.7750 4.0025C1.8117 4.3782 2.8134 3.7218 3.0642 2.5025L3.0642 2.5025C2.7476 3.6214 1.7459 4.2778 0.7750 4.0025z"/>
</g>
<g transform="translate(4.4682, 2.5767)">
<path stroke-width="0.0800" stroke-linejoin="round" stroke-linecap="round" stroke="currentColor" fill="currentColor" d="M0.5941 -2.0971C1.2516 -2.8210 2.2257 -2.8210 2.8833 -2.0971L2.8833 -2.0971C2.2257 -2.7010 1.2516 -2.7010 0.5941 -2.0971z"/>
</g>
<g class="chord-label">
<g transform="translate(35.1778, -3.9233)">
<text font-family="Roboto" font-weight="bold" font-style="italic" font-size="2.6165" text-anchor="start" fill="currentColor">
<tspan>D</tspan>
</text>
</g>
<g transform="translate(36.8508, -3.9233)">
<text font-family="Roboto" font-weight="bold" font-style="italic" font-size="2.6165" text-anchor="start" fill="currentColor">
<tspan>m</tspan>
</text>
</g>
<g transform="translate(39.0701, -5.1125)">
<text font-family="Roboto" font-weight="bold" font-style="italic" font-size="1.8500" text-anchor="start" fill="currentColor">
<tspan>add</tspan>
</text>
</g>
<g transform="translate(42.0747, -5.1125)">
<text font-family="Roboto" font-weight="bold" font-style="italic" font-size="1.8500" text-anchor="start" fill="currentColor">
<tspan>9</tspan>
</text>
</g>
<g transform="translate(43.0990, -3.9233)">
<text font-family="Roboto" font-weight="bold" font-style="italic" font-size="2.6165" text-anchor="start" fill="currentColor">
<tspan>/</tspan>
</text>
</g>
<g transform="translate(44.0550, -3.9233)">
<text font-family="Roboto" font-weight="bold" font-style="italic" font-size="2.6165" text-anchor="start" fill="currentColor">
<tspan>F</tspan>
</text>
</g>
</g>
<g class="tab-note">
<g color="rgb(100.0000%, 100.0000%, 100.0000%)">
<g transform="translate(35.4278, 6.3267)">
<rect x="0.0990" y="-0.5605" width="0.9902" height="1.1210" ry="0.0000" fill="currentColor"/>
</g>
</g>
<g transform="translate(35.5268, 6.8872)">
<text font-family="Roboto Serif" font-weight="bold" font-size="1.7459" text-anchor="start" fill="currentColor">
<tspan>1</tspan>
</text>
</g>
</g>
<g class="tab-note">
<g color="rgb(100.0000%, 100.0000%, 100.0000%)">
<g transform="translate(35.4278, 3.3267)">
<rect x="0.0990" y="-0.5806" width="0.9902" height="1.1611" ry="0.0000" fill="currentColor"/>
</g>
</g>
<g transform="translate(35.5268, 3.8880)">
<text font-family="Roboto Serif" font-weight="bold" font-size="1.7459" text-anchor="start" fill="currentColor">
<tspan>0</tspan>
</text>
</g>
</g>
<g transform="translate(36.0219, 2.5767)">
<rect x="-0.0650" y="-4.5000" width="0.1300" height="4.4933" ry="0.0400" fill="currentColor"/>
</g>
<g transform="translate(57.9154, 2.5767)">
<path stroke-width="0.0800" stroke-linejoin="round" stroke-linecap="round" stroke="currentColor" fill="currentColor" d="M0.7941 -4.8750C1.9265 -5.7873 7.7547 -5.7873 8.8872 -4.8750L8.8872 -4.8750C7.7547 -5.6673 1.9265 -5.6673 0.7941 -4.8750z"/>
</g>
<g class="tab-note">
<g color="rgb(100.0000%, 100.0000%, 100.0000%)">
<g transform="translate(39.5832, 1.8267)">
<rect x="0.0990" y="-0.5701" width="0.9902" height="1.1402" ry="0.0000" fill="currentColor"/>
</g>
</g>
<g transform="translate(39.6822, 2.3968)">
<text font-family="Roboto Serif" font-weight="bold" font-size="1.7459" text-anchor="start" fill="currentColor">
<tspan>2</tspan>
</text>
</g>
</g>
<g transform="translate(40.1773, 2.5767)">
<rect x="-0.0650" y="0.0196" width="0.1300" height="4.4804" ry="0.0400" fill="currentColor"/>
</g>
<g class="chord-label">
<g transform="translate(46.5549, -3.9233)">
<text font-family="Roboto" font-weight="bold" font-style="italic" font-size="2.6165" text-anchor="start" fill="currentColor">
<tspan>C</tspan>
</text>
</g>
</g>
<g class="tab-note">
<g color="rgb(100.0000%, 100.0000%, 100.0000%)">
<g transform="translate(46.8049, 4.8267)">
<rect x="0.0990" y="-0.6347" width="0.9902" height="1.2694" ry="0.0000" fill="currentColor"/>
</g>
</g>
<g transform="translate(46.9039, 5.3322)">
<text font-family="Roboto Serif" font-weight="bold" font-size="1.7459" text-anchor="start" fill="currentColor">
<tspan>3</tspan>
</text>
</g>
</g>
<g class="tab-note">
<g color="rgb(100.0000%, 100.0000%, 100.0000%)">
<g transform="translate(46.8049, 3.3267)">
<rect x="0.0990" y="-0.5701" width="0.9902" height="1.1402" ry="0.0000" fill="currentColor"/>
</g>
</g>
<g transform="translate(46.9039, 3.8968)">
<text font-family="Roboto Serif" font-weight="bold" font-size="1.7459" text-anchor="start" fill="currentColor">
<tspan>2</tspan>
</text>
</g>
</g>
<g transform="translate(48.3441, 4.0767)">
<path transform="scale(0.0040, -0.0040)" d="M0 0c0 31 25 56 56 56s56 -25 56 -56s-25 -56 -56 -56s-56 25 -56 56z" fill="currentColor"/>
</g>
<g transform="translate(47.3990, 2.5767)">
<rect x="-0.0650" y="-4.5000" width="0.1300" height="4.3932" ry="0.0400" fill="currentColor"/>
</g>
<g transform="translate(48.3441, 2.5767)">
<path transform="scale(0.0040, -0.0040)" d="M0 0c0 31 25 56 56 56s56 -25 56 -56s-25 -56 -56 -56s-56 25 -56 56z" fill="currentColor"/>
</g>
<g class="chord-label">
<g transform="translate(50.7460, -3.9233)">
<text font-family="Roboto" font-weight="bold" font-style="italic" font-size="2.6165" text-anchor="start" fill="currentColor">
<tspan>E</tspan>
</text>
</g>
<g transform="translate(52.1800, -3.9233)">
<text font-family="Roboto" font-weight="bold" font-style="italic" font-size="2.6165" text-anchor="start" fill="currentColor">
<tspan>m</tspan>
</text>
</g>
</g>
<g class="tab-note">
<g color="rgb(100.0000%, 100.0000%, 100.0000%)">
<g transform="translate(50.9960, 6.3267)">
<rect x="0.0990" y="-0.5806" width="0.9902" height="1.1611" ry="0.0000" fill="currentColor"/>
</g>
</g>
<g transform="translate(51.0950, 6.8880)">
<text font-family="Roboto Serif" font-weight="bold" font-size="1.7459" text-anchor="start" fill="currentColor">
<tspan>0</tspan>
</text>
</g>
</g>
<g class="tab-note">
<g color="rgb(100.0000%, 100.0000%, 100.0000%)">
<g transform="translate(50.9960, 1.8267)">
<rect x="0.0990" y="-0.5806" width="0.9902" height="1.1611" ry="0.0000" fill="currentColor"/>
</g>
</g>
<g transform="translate(51.0950, 2.3880)">
<text font-family="Roboto Serif" font-weight="bold" font-size="1.7459" text-anchor="start" fill="currentColor">
<tspan>0</tspan>
</text>
</g>
</g>
<g transform="translate(51.5901, 2.5767)">
<rect x="-0.0650" y="-5.7500" width="0.1300" height="4.2162" ry="0.0400" fill="currentColor"/>
</g>
<g class="tab-note">
<g color="rgb(100.0000%, 100.0000%, 100.0000%)">
<g transform="translate(54.4852, 0.3267)">
<rect x="0.0990" y="-0.6347" width="0.9902" height="1.2694" ry="0.0000" fill="currentColor"/>
</g>
</g>
<g transform="translate(54.5842, 0.8322)">
<text font-family="Roboto Serif" font-weight="bold" font-size="1.7459" text-anchor="start" fill="currentColor">
<tspan>3</tspan>
</text>
</g>
</g>
<g transform="translate(55.0793, 2.5767)">
<rect x="-0.0650" y="-1.3932" width="0.1300" height="4.3932" ry="0.0400" fill="currentColor"/>
</g>
<g transform="translate(55.1443, 5.5367)">
<path transform="scale(0.0040, -0.0040)" d="M0 0h-16v250h16v-250zM0 0v250c97 59 224 148 224 259c0 57 -15 112 -40 163c-3 16 10 27 23 27c7 0 15 -3 20 -11c25 -56 40 -117 40 -179c0 -203 -267 -306 -267 -509z" fill="currentColor"/>
</g>
<g class="chord-label">
<g transform="translate(57.6654, -3.9233)">
<text font-family="Roboto" font-weight="bold" font-style="italic" font-size="2.6165" text-anchor="start" fill="currentColor">
<tspan>D</tspan>
</text>
</g>
<g transform="translate(59.3384, -5.1125)">
<text font-family="Roboto" font-weight="bold" font-style="italic" font-size="1.8500" text-anchor="start" fill="currentColor">
<tspan>add</tspan>
</text>
</g>
<g transform="translate(62.3430, -5.1125)">
<text font-family="Roboto" font-weight="bold" font-style="italic" font-size="1.8500" text-anchor="start" fill="currentColor">
<tspan>9</tspan>
</text>
</g>
</g>
<g class="tab-note">
<g color="rgb(100.0000%, 100.0000%, 100.0000%)">
<g transform="translate(57.9154, 3.3267)">
<rect x="0.0990" y="-0.5806" width="0.9902" height="1.1611" ry="0.0000" fill="currentColor"/>
</g>
</g>
<g transform="translate(58.0144, 3.8880)">
<text font-family="Roboto Serif" font-weight="bold" font-size="1.7459" text-anchor="start" fill="currentColor">
<tspan>0</tspan>
</text>
</g>
</g>
<g class="tab-note">
<g color="rgb(100.0000%, 100.0000%, 100.0000%)">
<g transform="translate(57.9154, 0.3267)">
<rect x="0.0990" y="-0.6347" width="0.9902" height="1.2694" ry="0.0000" fill="currentColor"/>
</g>
</g>
<g transform="translate(58.0144, 0.8322)">
<text font-family="Roboto Serif" font-weight="bold" font-size="1.7459" text-anchor="start" fill="currentColor">
<tspan>3</tspan>
</text>
</g>
</g>
<g class="tab-note">
<g color="rgb(100.0000%, 100.0000%, 100.0000%)">
<g transform="translate(57.9154, -1.1733)">
<rect x="0.0990" y="-0.6347" width="0.9902" height="1.2694" ry="0.0000" fill="currentColor"/>
</g>
</g>
<g transform="translate(58.0144, -0.6678)">
<text font-family="Roboto Serif" font-weight="bold" font-size="1.7459" text-anchor="start" fill="currentColor">
<tspan>3</tspan>
</text>
</g>
</g>
<g transform="translate(-0.0600, 2.5767)">
<rect x="0.0000" y="-3.8000" width="0.1600" height="7.6000" ry="0.0500" fill="currentColor"/>
</g>
<g transform="translate(59.4546, 2.5767)">
<path transform="scale(0.0040, -0.0040)" d="M0 0c0 31 25 56 56 56s56 -25 56 -56s-25 -56 -56 -56s-56 25 -56 56z" fill="currentColor"/>
</g>
<g transform="translate(58.2595, 2.5767)">
<rect x="-0.0650" y="1.6068" width="0.1300" height="4.1432" ry="0.0400" fill="currentColor"/>
</g>
<g transform="translate(58.7595, 2.5767)">
<rect x="-0.0650" y="1.6068" width="0.1300" height="4.1432" ry="0.0400" fill="currentColor"/>
</g>
<g transform="translate(59.4546, -0.4233)">
<path transform="scale(0.0040, -0.0040)" d="M0 0c0 31 25 56 56 56s56 -25 56 -56s-25 -56 -56 -56s-56 25 -56 56z" fill="currentColor"/>
</g>
<g transform="translate(59.4546, -1.9233)">
<path transform="scale(0.0040, -0.0040)" d="M0 0c0 31 25 56 56 56s56 -25 56 -56s-25 -56 -56 -56s-56 25 -56 56z" fill="currentColor"/>
</g>
<g transform="translate(57.8144, 0.3267)">
<path transform="scale(0.0016, -0.0016)" d="M-31 -250c0 -10 -9 -19 -19 -19c-5 0 -12 2 -16 8c-54 77 -90 167 -90 261s36 184 90 261c4 6 11 8 16 8c10 0 19 -9 19 -19c0 -21 -63 -57 -63 -250s63 -229 63 -250z" fill="currentColor"/>
</g>
<g transform="translate(60.1046, 0.3267)">
<path transform="scale(0.0016, -0.0016)" d="M31 -250c0 21 63 57 63 250s-63 229 -63 250c0 10 9 19 19 19c5 0 12 -2 16 -8c54 -77 90 -167 90 -261s-36 -184 -90 -261c-4 -6 -11 -8 -16 -8c-10 0 -19 9 -19 19z" fill="currentColor"/>
</g>
<g class="tab-note">
<g color="rgb(100.0000%, 100.0000%, 100.0000%)">
<g transform="translate(66.4085, 3.3267)">
<rect x="0.0990" y="-0.5806" width="0.9902" height="1.1611" ry="0.0000" fill="currentColor"/>
</g>
</g>
<g transform="translate(66.5075, 3.8880)">
<text font-family="Roboto Serif" font-weight="bold" font-size="1.7459" text-anchor="start" fill="currentColor">
<tspan>0</tspan>
</text>
</g>
</g>
<g class="tab-note">
<g color="rgb(100.0000%, 100.0000%, 100.0000%)">
<g transform="translate(66.4085, 0.3267)">
<rect x="0.0990" y="-0.6347" width="0.9902" height="1.2694" ry="0.0000" fill="currentColor"/>
</g>
</g>
<g transform="translate(66.5075, 0.8322)">
<text font-family="Roboto Serif" font-weight="bold" font-size="1.7459" text-anchor="start" fill="currentColor">
<tspan>3</tspan>
</text>
</g>
</g>
<g class="tab-note">
<g color="rgb(100.0000%, 100.0000%, 100.0000%)">
<g transform="translate(66.4085, -1.1733)">
<rect x="0.0990" y="-0.6347" width="0.9902" height="1.2694" ry="0.0000" fill="currentColor"/>
</g>
</g>
<g transform="translate(66.5075, -0.6678)">
<text font-family="Roboto Serif" font-weight="bold" font-size="1.7459" text-anchor="start" fill="currentColor">
<tspan>3</tspan>
</text>
</g>
</g>
<g transform="translate(67.9477, 2.5767)">
<path transform="scale(0.0040, -0.0040)" d="M0 0c0 31 25 56 56 56s56 -25 56 -56s-25 -56 -56 -56s-56 25 -56 56z" fill="currentColor"/>
</g>
<g transform="translate(67.0026, 2.5767)">
<rect x="-0.0650" y="1.6068" width="0.1300" height="4.1432" ry="0.0400" fill="currentColor"/>
</g>
<g transform="translate(67.9477, -0.4233)">
<path transform="scale(0.0040, -0.0040)" d="M0 0c0 31 25 56 56 56s56 -25 56 -56s-25 -56 -56 -56s-56 25 -56 56z" fill="currentColor"/>
</g>
<g transform="translate(67.9477, -1.9233)">
<path transform="scale(0.0040, -0.0040)" d="M0 0c0 31 25 56 56 56s56 -25 56 -56s-25 -56 -56 -56s-56 25 -56 56z" fill="currentColor"/>
</g>
<g transform="translate(66.3075, 0.3267)">
<path transform="scale(0.0016, -0.0016)" d="M-31 -250c0 -10 -9 -19 -19 -19c-5 0 -12 2 -16 8c-54 77 -90 167 -90 261s36 184 90 261c4 6 11 8 16 8c10 0 19 -9 19 -19c0 -21 -63 -57 -63 -250s63 -229 63 -250z" fill="currentColor"/>
</g>
<g transform="translate(68.5977, 0.3267)">
<path transform="scale(0.0016, -0.0016)" d="M31 -250c0 21 63 57 63 250s-63 229 -63 250c0 10 9 19 19 19c5 0 12 -2 16 -8c54 -77 90 -167 90 -261s-36 -184 -90 -261c-4 -6 -11 -8 -16 -8c-10 0 -19 9 -19 19z" fill="currentColor"/>
</g>
</svg>
