<?xml-stylesheet type="text/css" href="/css/ly-svg.css" ?>
<svg xmlns="http://www.w3.org/2000/svg" xmlns:xlink="http://www.w3.org/1999/xlink" version="1.2" width="80.04mm" height="21.86mm" viewBox="-0.0600 -4.8579 45.5494 12.4403">
<style type="text/css">
<![CDATA[
tspan { white-space: pre; }
]]>
</style>
<g transform="translate(1.3900, 1.1524)">
<path transform="scale(0.0040, -0.0040)" d="M0 0c0 31 25 56 56 56s56 -25 56 -56s-25 -56 -56 -56s-56 25 -56 56z" fill="currentColor"/>
</g>
<g transform="translate(1.3900, 4.1524)">
<path transform="scale(0.0040, -0.0040)" d="M0 0c0 31 25 56 56 56s56 -25 56 -56s-25 -56 -56 -56s-56 25 -56 56z" fill="currentColor"/>
</g>
<g transform="translate(0.9000, 2.6524)">
<rect x="0.0000" y="-3.7500" width="0.1900" height="7.5000" ry="0.0000" fill="currentColor"/>
</g>
<g transform="translate(0.0000, 2.6524)">
<rect x="0.0000" y="-3.7500" width="0.6000" height="7.5000" ry="0.0000" fill="currentColor"/>
</g>
<g transform="translate(0.0000, 6.4024)">
<line stroke-linejoin="round" stroke-linecap="round" stroke-width="0.1000" stroke="currentColor" x1="0.0500" y1="0" x2="45.4394" y2="0"/>
</g>
<g transform="translate(0.0000, 4.9024)">
<line stroke-linejoin="round" stroke-linecap="round" stroke-width="0.1000" stroke="currentColor" x1="0.0500" y1="0" x2="45.4394" y2="0"/>
</g>
<g transform="translate(0.0000, 3.4024)">
<line stroke-linejoin="round" stroke-linecap="round" stroke-width="0.1000" stroke="currentColor" x1="0.0500" y1="0" x2="45.4394" y2="0"/>
</g>
<g transform="translate(0.0000, 1.9024)">
<line stroke-linejoin="round" stroke-linecap="round" stroke-width="0.1000" stroke="currentColor" x1="0.0500" y1="0" x2="45.4394" y2="0"/>
</g>
<g transform="translate(0.0000, 0.4024)">
<line stroke-linejoin="round" stroke-linecap="round" stroke-width="0.1000" stroke="currentColor" x1="0.0500" y1="0" x2="45.4394" y2="0"/>
</g>
<g transform="translate(0.0000, -1.0976)">
<line stroke-linejoin="round" stroke-linecap="round" stroke-width="0.1000" stroke="currentColor" x1="0.0500" y1="0" x2="45.4394" y2="0"/>
</g>
<g transform="translate(43.6494, 1.1524)">
<path transform="scale(0.0040, -0.0040)" d="M0 0c0 31 25 56 56 56s56 -25 56 -56s-25 -56 -56 -56s-56 25 -56 56z" fill="currentColor"/>
</g>
<g transform="translate(43.6494, 4.1524)">
<path transform="scale(0.0040, -0.0040)" d="M0 0c0 31 25 56 56 56s56 -25 56 -56s-25 -56 -56 -56s-56 25 -56 56z" fill="currentColor"/>
</g>
<g transform="translate(44.8894, 2.6524)">
<rect x="0.0000" y="-3.7500" width="0.6000" height="7.5000" ry="0.0000" fill="currentColor"/>
</g>
<g transform="translate(44.3994, 2.6524)">
<rect x="0.0000" y="-3.7500" width="0.1900" height="7.5000" ry="0.0000" fill="currentColor"/>
</g>
<g transform="translate(35.6702, 2.6524)">
<rect x="0.0000" y="-3.7500" width="0.1900" height="7.5000" ry="0.0000" fill="currentColor"/>
</g>
<g transform="translate(24.4338, 2.6524)">
<rect x="0.0000" y="-3.7500" width="0.1900" height="7.5000" ry="0.0000" fill="currentColor"/>
</g>
<g transform="translate(13.4465, 2.6524)">
<rect x="0.0000" y="-3.7500" width="0.1900" height="7.5000" ry="0.0000" fill="currentColor"/>
</g>
<g class="chord-label">
<g transform="translate(2.9410, -2.2056)">
<text font-family="Roboto" font-weight="bold" font-style="italic" font-size="2.6165" text-anchor="start" fill="currentColor">
<tspan>F</tspan>
</text>
</g>
</g>
<g class="tab-note">
<g color="rgb(100.0000%, 100.0000%, 100.0000%)">
<g transform="translate(3.1910, 3.4024)">
<rect x="0.0990" y="-0.6347" width="0.9902" height="1.2694" ry="0.0000" fill="currentColor"/>
</g>
</g>
<g transform="translate(3.2901, 3.9079)">
<text font-family="Roboto Serif" font-weight="bold" font-size="1.7459" text-anchor="start" fill="currentColor">
<tspan>3</tspan>
</text>
</g>
</g>
<g transform="translate(30.4930, 2.6524)">
<path stroke-width="0.0800" stroke-linejoin="round" stroke-linecap="round" stroke="currentColor" fill="currentColor" d="M0.7941 -3.3750C1.8451 -4.2621 6.6102 -4.2621 7.6613 -3.3750L7.6613 -3.3750C6.6102 -4.1421 1.8451 -4.1421 0.7941 -3.3750z"/>
</g>
<g transform="translate(3.7851, 2.6524)">
<rect x="-0.0650" y="1.6068" width="0.1300" height="3.0603" ry="0.0400" fill="currentColor"/>
</g>
<g transform="translate(15.2074, 6.4024)">
<polygon stroke-linejoin="round" stroke-linecap="round" stroke-width="0.0800" fill="currentColor" stroke="currentColor" points="2.1292 0.7400 2.1292 1.1400 0.0400 0.2000 0.0400 -0.2000"/>
</g>
<g class="tab-note">
<g color="rgb(100.0000%, 100.0000%, 100.0000%)">
<g transform="translate(5.7302, 1.9024)">
<rect x="0.0990" y="-0.5701" width="0.9902" height="1.1402" ry="0.0000" fill="currentColor"/>
</g>
</g>
<g transform="translate(5.8292, 2.4725)">
<text font-family="Roboto Serif" font-weight="bold" font-size="1.7459" text-anchor="start" fill="currentColor">
<tspan>2</tspan>
</text>
</g>
</g>
<g transform="translate(6.3243, 2.6524)">
<rect x="-0.0650" y="0.0196" width="0.1300" height="3.7533" ry="0.0400" fill="currentColor"/>
</g>
<g transform="translate(3.7201, 7.3424)">
<polygon stroke-linejoin="round" stroke-linecap="round" stroke-width="0.0800" fill="currentColor" stroke="currentColor" points="2.6292 -1.1400 2.6292 -0.7400 0.0400 0.2000 0.0400 -0.2000"/>
</g>
<g class="tab-note">
<g color="rgb(100.0000%, 100.0000%, 100.0000%)">
<g transform="translate(8.2694, 0.4024)">
<rect x="0.0990" y="-0.5605" width="0.9902" height="1.1210" ry="0.0000" fill="currentColor"/>
</g>
</g>
<g transform="translate(8.3684, 0.9629)">
<text font-family="Roboto Serif" font-weight="bold" font-size="1.7459" text-anchor="start" fill="currentColor">
<tspan>1</tspan>
</text>
</g>
</g>
<g transform="translate(9.8085, -0.3476)">
<path transform="scale(0.0040, -0.0040)" d="M0 0c0 31 25 56 56 56s56 -25 56 -56s-25 -56 -56 -56s-56 25 -56 56z" fill="currentColor"/>
</g>
<g transform="translate(8.6135, 2.6524)">
<rect x="-0.0650" y="-1.4934" width="0.1300" height="4.4934" ry="0.0400" fill="currentColor"/>
</g>
<g transform="translate(9.1135, 2.6524)">
<rect x="-0.0650" y="-1.4934" width="0.1300" height="4.4934" ry="0.0400" fill="currentColor"/>
</g>
<g class="chord-label">
<g transform="translate(14.4283, -2.2056)">
<text font-family="Roboto" font-weight="bold" font-style="italic" font-size="2.6165" text-anchor="start" fill="currentColor">
<tspan>A</tspan>
</text>
</g>
<g transform="translate(16.1354, -2.2056)">
<text font-family="Roboto" font-weight="bold" font-style="italic" font-size="2.6165" text-anchor="start" fill="currentColor">
<tspan>m</tspan>
</text>
</g>
</g>
<g class="tab-note">
<g color="rgb(100.0000%, 100.0000%, 100.0000%)">
<g transform="translate(14.6783, 1.9024)">
<rect x="0.0990" y="-0.5701" width="0.9902" height="1.1402" ry="0.0000" fill="currentColor"/>
</g>
</g>
<g transform="translate(14.7773, 2.4725)">
<text font-family="Roboto Serif" font-weight="bold" font-size="1.7459" text-anchor="start" fill="currentColor">
<tspan>2</tspan>
</text>
</g>
</g>
<g transform="translate(15.2724, 2.6524)">
<rect x="-0.0650" y="0.0196" width="0.1300" height="3.7586" ry="0.0400" fill="currentColor"/>
</g>
<g class="tab-note">
<g color="rgb(100.0000%, 100.0000%, 100.0000%)">
<g transform="translate(16.7174, 3.4024)">
<rect x="0.0990" y="-0.5701" width="0.9902" height="1.1402" ry="0.0000" fill="currentColor"/>
</g>
</g>
<g transform="translate(16.8165, 3.9725)">
<text font-family="Roboto Serif" font-weight="bold" font-size="1.7459" text-anchor="start" fill="currentColor">
<tspan>2</tspan>
</text>
</g>
</g>
<g transform="translate(17.3115, 2.6524)">
<rect x="-0.0650" y="1.5196" width="0.1300" height="3.1422" ry="0.0400" fill="currentColor"/>
</g>
<g class="tab-note">
<g color="rgb(100.0000%, 100.0000%, 100.0000%)">
<g transform="translate(19.2566, 0.4024)">
<rect x="0.0990" y="-0.5605" width="0.9902" height="1.1210" ry="0.0000" fill="currentColor"/>
</g>
</g>
<g transform="translate(19.3556, 0.9629)">
<text font-family="Roboto Serif" font-weight="bold" font-size="1.7459" text-anchor="start" fill="currentColor">
<tspan>1</tspan>
</text>
</g>
</g>
<g transform="translate(20.7958, -0.3476)">
<path transform="scale(0.0040, -0.0040)" d="M0 0c0 31 25 56 56 56s56 -25 56 -56s-25 -56 -56 -56s-56 25 -56 56z" fill="currentColor"/>
</g>
<g transform="translate(19.6007, 2.6524)">
<rect x="-0.0650" y="-1.4934" width="0.1300" height="4.4934" ry="0.0400" fill="currentColor"/>
</g>
<g transform="translate(20.1007, 2.6524)">
<rect x="-0.0650" y="-1.4934" width="0.1300" height="4.4934" ry="0.0400" fill="currentColor"/>
</g>
<g class="chord-label">
<g transform="translate(25.4147, -2.2056)">
<text font-family="Roboto" font-weight="bold" font-style="italic" font-size="2.6165" text-anchor="start" fill="currentColor">
<tspan>G</tspan>
</text>
</g>
</g>
<g class="tab-note">
<g color="rgb(100.0000%, 100.0000%, 100.0000%)">
<g transform="translate(25.6647, 1.9024)">
<rect x="0.0990" y="-0.5806" width="0.9902" height="1.1611" ry="0.0000" fill="currentColor"/>
</g>
</g>
<g transform="translate(25.7637, 2.4637)">
<text font-family="Roboto Serif" font-weight="bold" font-size="1.7459" text-anchor="start" fill="currentColor">
<tspan>0</tspan>
</text>
</g>
</g>
<g transform="translate(26.2588, 2.6524)">
<rect x="-0.0650" y="0.0338" width="0.1300" height="3.6933" ry="0.0400" fill="currentColor"/>
</g>
<g class="tab-note">
<g color="rgb(100.0000%, 100.0000%, 100.0000%)">
<g transform="translate(28.2039, 0.4024)">
<rect x="0.0990" y="-0.5806" width="0.9902" height="1.1611" ry="0.0000" fill="currentColor"/>
</g>
</g>
<g transform="translate(28.3029, 0.9637)">
<text font-family="Roboto Serif" font-weight="bold" font-size="1.7459" text-anchor="start" fill="currentColor">
<tspan>0</tspan>
</text>
</g>
</g>
<g transform="translate(28.7980, 2.6524)">
<rect x="-0.0650" y="-1.4662" width="0.1300" height="4.2991" ry="0.0400" fill="currentColor"/>
</g>
<g class="chord-label">
<g transform="translate(30.2430, -2.2056)">
<text font-family="Roboto" font-weight="bold" font-style="italic" font-size="2.6165" text-anchor="start" fill="currentColor">
<tspan>G</tspan>
</text>
</g>
<g transform="translate(31.9844, -3.3948)">
<text font-family="Roboto" font-weight="bold" font-style="italic" font-size="1.8500" text-anchor="start" fill="currentColor">
<tspan>sus</tspan>
</text>
</g>
<g transform="translate(34.8524, -3.3948)">
<text font-family="Roboto" font-weight="bold" font-style="italic" font-size="1.8500" text-anchor="start" fill="currentColor">
<tspan>4</tspan>
</text>
</g>
</g>
<g class="tab-note">
<g color="rgb(100.0000%, 100.0000%, 100.0000%)">
<g transform="translate(30.4930, 0.4024)">
<rect x="0.0990" y="-0.5605" width="0.9902" height="1.1210" ry="0.0000" fill="currentColor"/>
</g>
</g>
<g transform="translate(30.5921, 0.9629)">
<text font-family="Roboto Serif" font-weight="bold" font-size="1.7459" text-anchor="start" fill="currentColor">
<tspan>1</tspan>
</text>
</g>
</g>
<g transform="translate(32.0322, -0.3476)">
<path transform="scale(0.0040, -0.0040)" d="M0 0c0 31 25 56 56 56s56 -25 56 -56s-25 -56 -56 -56s-56 25 -56 56z" fill="currentColor"/>
</g>
<g transform="translate(30.8371, 2.6524)">
<rect x="-0.0650" y="-1.4934" width="0.1300" height="4.4934" ry="0.0400" fill="currentColor"/>
</g>
<g transform="translate(31.3371, 2.6524)">
<rect x="-0.0650" y="-1.4934" width="0.1300" height="4.4934" ry="0.0400" fill="currentColor"/>
</g>
<g transform="translate(30.0430, -3.4437)">
<path transform="scale(0.0057, -0.0057)" d="M-39 -250c0 -6 -5 -11 -11 -11c-3 0 -7 2 -9 5c-53 76 -89 163 -89 256s36 180 89 256c2 3 6 5 9 5c6 0 11 -5 11 -11c0 -16 -63 -58 -63 -250s63 -234 63 -250z" fill="currentColor"/>
</g>
<g transform="translate(36.0767, -3.4437)">
<path transform="scale(0.0057, -0.0057)" d="M39 -250c0 16 63 58 63 250s-63 234 -63 250c0 6 5 11 11 11c3 0 7 -2 9 -5c53 -76 89 -163 89 -256s-36 -180 -89 -256c-2 -3 -6 -5 -9 -5c-6 0 -11 5 -11 11z" fill="currentColor"/>
</g>
<g class="tab-note">
<g color="rgb(100.0000%, 100.0000%, 100.0000%)">
<g transform="translate(37.7602, 0.4024)">
<rect x="0.0990" y="-0.5605" width="0.9902" height="1.1210" ry="0.0000" fill="currentColor"/>
</g>
</g>
<g transform="translate(37.8592, 0.9629)">
<text font-family="Roboto Serif" font-weight="bold" font-size="1.7459" text-anchor="start" fill="currentColor">
<tspan>1</tspan>
</text>
</g>
</g>
<g transform="translate(-0.0600, 2.6524)">
<rect x="0.0000" y="-3.8000" width="0.1600" height="7.6000" ry="0.0500" fill="currentColor"/>
</g>
<g transform="translate(26.1938, 6.4024)">
<polygon stroke-linejoin="round" stroke-linecap="round" stroke-width="0.0800" fill="currentColor" stroke="currentColor" points="2.6292 -1.1400 2.6292 -0.7400 0.0400 0.2000 0.0400 -0.2000"/>
</g>
</svg>
