<?xml version="1.0" encoding="UTF-8"?>
<!-- Created with EazyDraw for Mac ( http://www.eazydraw.com/ ) -->

<svg
    version="1.1"
    xmlns:dc="http://purl.org/dc/elements/1.1/"
    xmlns:cc="http://creativecommons.org/ns#"
    xmlns:rdf="http://www.w3.org/1999/02/22-rdf-syntax-ns#"
    xmlns:svg="http://www.w3.org/2000/svg"
    xmlns:xlink="http://www.w3.org/1999/xlink"
    xmlns="http://www.w3.org/2000/svg"
    width="50"
    height="50"
    viewBox="0, 0, 50, 50"
    preserveAspectRatio="none"
    id="svg2">
   <defs
       id="defs_9A822620"/>
   <metadata
       id="metadata7">
      <rdf:RDF>
         <cc:Work
             rdf:about="">
            <dc:format>image/svg+xml</dc:format>
            <dc:type rdf:resource="http://purl.org/dc/dcmitype/StillImage"/>
            <dc:title></dc:title>
         </cc:Work>
      </rdf:RDF>
   </metadata>
   <g
       id="layer_Paper"
       style="fill:#000000;fill-opacity:1;stroke:#000000;stroke-opacity:1;fill-rule:nonzero;stroke-linecap:square;stroke-linejoin:miter;stroke-width:1;stroke-miterlimit:10">
      <path
          style="fill:#42463F;stroke:none;fill-rule:evenodd"
          id="007B0520"
          d="M25,0 C11.1928806,0 0,11.1928806 0,25 C0,38.8071194 11.1928806,50 25,50 C38.8071194,50 50,38.8071194 50,25 C50,11.1928806 38.8071194,0 25,0 z M25,3 C12.8497349,3 3,12.8497349 3,25 C3,37.1502651 12.8497349,47 25,47
C37.1502651,47 47,37.1502651 47,25 C47,12.8497349 37.1502651,3 25,3 z M37,31.9646738 L37,17 L28.262875,25.4642914 L37,31.9646738 z M13,31.9646738 L21.7369375,25.4633812 L13,17 L13,31.9646738 z M22.9140156,26.604743
L13,33 L37,33 L27.08575,26.604743 L25,28.625083 L22.9140156,26.604743 z M13.72,17 L25,26.0581312 L36.28,17 L13.72,17 z"/>
   </g>
</svg>
