<?xml version="1.0" encoding="UTF-8" standalone="no"?>
<svg
   version="1.1"
   viewBox="0 0 50 50"
   width="50"
   height="50"
   xmlns="http://www.w3.org/2000/svg"
   xmlns:svg="http://www.w3.org/2000/svg">
  <path
     d="m 7.7223215,22.746429 c 0,-0.368363 0.073628,-0.736756 0.2208839,-1.091429 0.3348215,-0.806428 1.2284226,-1.505803 3.0157736,-2.904494 l 8.935417,-6.992857 c 1.787232,-1.398691 2.680863,-2.0980358 3.71131,-2.3600596 0.906398,-0.2304881 1.882797,-0.2304852 2.789196,0 1.030476,0.2620267 1.924048,0.9613686 3.71131,2.3600596 l 8.935119,6.992857 c 1.787321,1.398691 2.680863,2.098036 3.015774,2.904494 0.147235,0.354673 0.220854,0.723066 0.220854,1.091429 v 4.507143 c 0,0.368363 -0.07362,0.736756 -0.220854,1.091488 -0.334852,0.806428 -1.228423,1.505803 -3.015774,2.904345 l -8.935119,6.992857 c -1.787322,1.398572 -2.680864,2.097917 -3.71131,2.36009 -0.906399,0.230434 -1.882798,0.230434 -2.789196,0 -1.030447,-0.26217 -1.924048,-0.961548 -3.71131,-2.36009 L 10.958979,31.249405 C 9.1717471,29.850834 8.2781459,29.151459 7.9432054,28.34506 7.7959495,27.990298 7.7223215,27.621935 7.7223215,27.253572 Z m 13.4482145,-4.661905 1.276458,0.998958 c 0.893631,0.699346 1.340447,1.049018 1.855655,1.18003 0.453214,0.115253 0.941399,0.115253 1.394583,0 0.515238,-0.131012 0.961965,-0.480684 1.855715,-1.18003 l 1.276488,-0.998988 c 0.893571,-0.699345 1.340357,-1.049018 1.507857,-1.452232 0.147235,-0.354673 0.147235,-0.736756 0,-1.091429 -0.167518,-0.403214 -0.614286,-0.752886 -1.507857,-1.452261 l -1.276488,-0.998989 c -0.89375,-0.699345 -1.340477,-1.049017 -1.855715,-1.180029 -0.453214,-0.115253 -0.941398,-0.115253 -1.394583,0 -0.515208,0.131012 -0.962024,0.480684 -1.855655,1.180029 l -1.276458,0.998989 c -0.893631,0.699345 -1.340417,1.049017 -1.507828,1.452261 -0.147255,0.354673 -0.147255,0.736756 0,1.091429 0.167408,0.403214 0.614197,0.752887 1.507828,1.452262 z m 8.509821,6.659821 1.276488,0.999018 c 0.893572,0.699346 1.340328,1.048988 1.855655,1.18 0.453155,0.115235 0.941459,0.115235 1.394613,0 0.515149,-0.131012 0.961905,-0.480714 1.855655,-1.180059 l 1.276488,-0.998959 c 0.893572,-0.699345 1.340328,-1.049017 1.507679,-1.452261 0.147235,-0.354673 0.147235,-0.736756 0,-1.091429 -0.167334,-0.403214 -0.614107,-0.752887 -1.507679,-1.452232 l -1.276488,-0.998988 c -0.89375,-0.699346 -1.340536,-1.049018 -1.855655,-1.18003 -0.453154,-0.115235 -0.941458,-0.115235 -1.394613,0 -0.515327,0.131012 -0.962113,0.480684 -1.855655,1.18003 l -1.276488,0.998988 c -0.893571,0.699345 -1.340327,1.049018 -1.507857,1.452232 -0.147238,0.354673 -0.147238,0.736756 0,1.091429 0.167518,0.403214 0.614286,0.752886 1.507857,1.452261 z m -17.019643,0 9.78631,7.658929 c 0.893631,0.699375 1.340446,1.049048 1.855655,1.180149 0.453214,0.115122 0.941399,0.115122 1.394583,0 0.515238,-0.131086 0.962143,-0.480774 1.855685,-1.180149 l 1.276488,-0.998929 c 0.893571,-0.699375 1.340357,-1.049047 1.507857,-1.452261 0.147235,-0.354762 0.147235,-0.736756 0,-1.091518 -0.167518,-0.403215 -0.614286,-0.752887 -1.507857,-1.452143 l -9.78631,-7.658929 c -0.893631,-0.699345 -1.340446,-1.049018 -1.855655,-1.18003 -0.453214,-0.115235 -0.941398,-0.115235 -1.394583,0 -0.515238,0.131012 -0.962024,0.480685 -1.855655,1.18003 l -1.276458,0.998988 c -0.893631,0.699346 -1.340447,1.049018 -1.507827,1.452232 -0.147256,0.354673 -0.147256,0.736756 0,1.091429 0.167404,0.403214 0.614226,0.752887 1.507827,1.452262 z M 25,50 C 38.807143,50 50,38.807143 50,25 50,11.192857 38.807143,0 25,0 11.192857,0 0,11.192857 0,25 0,38.807143 11.192857,50 25,50 Z m 0,-3 C 37.150298,47 47,37.150298 47,25 47,12.849702 37.150298,3 25,3 12.849702,3 3,12.849702 3,25 3,37.150298 12.849702,47 25,47 Z"
     fill-rule="evenodd" />
</svg>
