<?xml version="1.0" encoding="UTF-8"?>
<svg version="1.1" viewBox="0 0 184 168" xmlns="http://www.w3.org/2000/svg">
   <path
      d="M25.947 76.428c0-1.2377 0.24739-2.4755 0.74217-3.6672 1.125-2.7096 4.1275-5.0595 10.133-9.7591l30.023-23.496c6.0051-4.6996 9.0077-7.0494 12.47-7.9298 3.0455-0.77444 6.3262-0.77443 9.3717 0 3.4624 0.88041 6.4648 3.2302 12.47 7.9298l30.022 23.496c6.0054 4.6996 9.0077 7.0494 10.133 9.7591 0.49471 1.1917 0.74207 2.4295 0.74207 3.6672v15.144c0 1.2377-0.24736 2.4755-0.74207 3.6674-1.1251 2.7096-4.1275 5.0595-10.133 9.7586l-30.022 23.496c-6.0054 4.6992-9.0077 7.049-12.47 7.9299-3.0455 0.77426-6.3262 0.77426-9.3717 0-3.4623-0.88089-6.4648-3.2308-12.47-7.9299l-30.023-23.496c-6.0051-4.6992-9.0076-7.0491-10.133-9.7586-0.49478-1.192-0.74217-2.4297-0.74217-3.6674zm45.186-15.664 4.2889 3.3565c3.0026 2.3498 4.5039 3.5247 6.235 3.9649 1.5228 0.38725 3.1631 0.38725 4.6858 0 1.7312-0.4402 3.2322-1.6151 6.2352-3.9649l4.289-3.3566c3.0024-2.3498 4.5036-3.5247 5.0664-4.8795 0.49471-1.1917 0.49471-2.4755 0-3.6672-0.56286-1.3548-2.064-2.5297-5.0664-4.8796l-4.289-3.3566c-3.003-2.3498-4.504-3.5247-6.2352-3.9649-1.5228-0.38725-3.1631-0.38725-4.6858 0-1.7311 0.4402-3.2324 1.6151-6.235 3.9649l-4.2889 3.3566c-3.0026 2.3498-4.5038 3.5247-5.0663 4.8796-0.49478 1.1917-0.49478 2.4755 0 3.6672 0.56249 1.3548 2.0637 2.5297 5.0663 4.8796zm28.593 22.377 4.289 3.3567c3.0024 2.3498 4.5035 3.5246 6.235 3.9648 1.5226 0.38719 3.1633 0.38719 4.6859 0 1.7309-0.4402 3.232-1.6152 6.235-3.965l4.289-3.3565c3.0024-2.3498 4.5035-3.5247 5.0658-4.8796 0.49471-1.1917 0.49471-2.4755 0-3.6672-0.56224-1.3548-2.0634-2.5297-5.0658-4.8795l-4.289-3.3566c-3.003-2.3498-4.5042-3.5247-6.235-3.9649-1.5226-0.38719-3.1633-0.38719-4.6859 0-1.7315 0.4402-3.2327 1.6151-6.235 3.9649l-4.289 3.3566c-3.0024 2.3498-4.5035 3.5247-5.0664 4.8795-0.49472 1.1917-0.49472 2.4755 0 3.6672 0.56286 1.3548 2.064 2.5297 5.0664 4.8796zm-57.186 0 32.882 25.734c3.0026 2.3499 4.5039 3.5248 6.235 3.9653 1.5228 0.38681 3.1631 0.38681 4.6858 0 1.7312-0.44045 3.2328-1.6154 6.2351-3.9653l4.289-3.3564c3.0024-2.3499 4.5036-3.5248 5.0664-4.8796 0.49471-1.192 0.49471-2.4755 0-3.6675-0.56286-1.3548-2.064-2.5297-5.0664-4.8792l-32.882-25.734c-3.0026-2.3498-4.5039-3.5247-6.235-3.9649-1.5228-0.38719-3.1631-0.38719-4.6858 0-1.7312 0.4402-3.2324 1.6151-6.235 3.9649l-4.2889 3.3566c-3.0026 2.3498-4.5039 3.5247-5.0663 4.8795-0.49478 1.1917-0.49478 2.4755 0 3.6672 0.56248 1.3548 2.0638 2.5297 5.0663 4.8796z M84 168c46.392 0 84-37.608 84-84s-37.608-84-84-84-84 37.608-84 84 37.608 84 84 84zm0-10.08c40.825 0 73.92-33.095 73.92-73.92s-33.095-73.92-73.92-73.92-73.92 33.095-73.92 73.92 33.095 73.92 73.92 73.92z" fill-rule="evenodd" />
</svg>