<?xml-stylesheet type="text/css" href="/css/ly-svg.css" ?>
<svg xmlns="http://www.w3.org/2000/svg" xmlns:xlink="http://www.w3.org/1999/xlink" version="1.2" width="167.05mm" height="47.28mm" viewBox="-0.0600 -6.9193 95.0600 26.9074">
<style type="text/css">
<![CDATA[
tspan { white-space: pre; }
]]>
</style>
<g transform="translate(0.9000, 2.5044)">
<rect x="0.0000" y="-3.7500" width="0.1900" height="7.5000" ry="0.0000" fill="currentColor"/>
</g>
<g transform="translate(0.0000, 2.5044)">
<rect x="0.0000" y="-3.7500" width="0.6000" height="7.5000" ry="0.0000" fill="currentColor"/>
</g>
<g transform="translate(0.0000, 6.2544)">
<line stroke-linejoin="round" stroke-linecap="round" stroke-width="0.1000" stroke="currentColor" x1="0.0500" y1="0" x2="94.9500" y2="0"/>
</g>
<g transform="translate(0.0000, 4.7544)">
<line stroke-linejoin="round" stroke-linecap="round" stroke-width="0.1000" stroke="currentColor" x1="0.0500" y1="0" x2="94.9500" y2="0"/>
</g>
<g transform="translate(0.0000, 3.2544)">
<line stroke-linejoin="round" stroke-linecap="round" stroke-width="0.1000" stroke="currentColor" x1="0.0500" y1="0" x2="94.9500" y2="0"/>
</g>
<g transform="translate(0.0000, 1.7544)">
<line stroke-linejoin="round" stroke-linecap="round" stroke-width="0.1000" stroke="currentColor" x1="0.0500" y1="0" x2="94.9500" y2="0"/>
</g>
<g transform="translate(0.0000, 0.2544)">
<line stroke-linejoin="round" stroke-linecap="round" stroke-width="0.1000" stroke="currentColor" x1="0.0500" y1="0" x2="94.9500" y2="0"/>
</g>
<g transform="translate(0.0000, -1.2456)">
<line stroke-linejoin="round" stroke-linecap="round" stroke-width="0.1000" stroke="currentColor" x1="0.0500" y1="0" x2="94.9500" y2="0"/>
</g>
<g transform="translate(94.8100, 2.5044)">
<rect x="0.0000" y="-3.7500" width="0.1900" height="7.5000" ry="0.0000" fill="currentColor"/>
</g>
<g transform="translate(77.1925, 2.5044)">
<rect x="0.0000" y="-3.7500" width="0.1900" height="7.5000" ry="0.0000" fill="currentColor"/>
</g>
<g transform="translate(61.5570, 2.5044)">
<rect x="0.0000" y="-3.7500" width="0.1900" height="7.5000" ry="0.0000" fill="currentColor"/>
</g>
<g transform="translate(43.9368, 2.5044)">
<rect x="0.0000" y="-3.7500" width="0.1900" height="7.5000" ry="0.0000" fill="currentColor"/>
</g>
<g transform="translate(28.3056, 2.5044)">
<rect x="0.0000" y="-3.7500" width="0.1900" height="7.5000" ry="0.0000" fill="currentColor"/>
</g>
<g transform="translate(11.8496, 2.5044)">
<rect x="0.0000" y="-3.7500" width="0.1900" height="7.5000" ry="0.0000" fill="currentColor"/>
</g>
<g transform="translate(49.5063, 2.5044)">
<rect x="-0.0650" y="-2.9238" width="0.1300" height="4.4238" ry="0.0400" fill="currentColor"/>
</g>
<g transform="translate(91.1121, 2.5044)">
<rect x="-0.0650" y="-1.4662" width="0.1300" height="4.7718" ry="0.0400" fill="currentColor"/>
</g>
<g class="tab-note">
<g color="rgb(100.0000%, 100.0000%, 100.0000%)">
<g transform="translate(2.6186, -1.2456)">
<rect x="0.0990" y="-0.6251" width="0.9902" height="1.2502" ry="0.0000" fill="currentColor"/>
</g>
</g>
<g transform="translate(2.7176, -0.7497)">
<text font-family="Roboto Serif" font-weight="bold" font-size="1.7459" text-anchor="start" fill="currentColor">
<tspan>5</tspan>
</text>
</g>
</g>
<g class="tab-note">
<g color="rgb(100.0000%, 100.0000%, 100.0000%)">
<g transform="translate(51.2721, 0.2544)">
<rect x="0.0990" y="-0.6251" width="0.9902" height="1.2502" ry="0.0000" fill="currentColor"/>
</g>
</g>
<g transform="translate(51.3711, 0.7503)">
<text font-family="Roboto Serif" font-weight="bold" font-size="1.7459" text-anchor="start" fill="currentColor">
<tspan>5</tspan>
</text>
</g>
</g>
<g transform="translate(3.2127, 2.5044)">
<rect x="-0.0650" y="-2.9061" width="0.1300" height="3.6561" ry="0.0400" fill="currentColor"/>
</g>
<g transform="translate(88.1582, 2.5044)">
<path stroke-width="0.0800" stroke-linejoin="round" stroke-linecap="round" stroke="currentColor" fill="currentColor" d="M0.5926 -3.5927C1.2653 -4.3184 2.2741 -4.3229 2.9524 -3.6032L2.9524 -3.6032C2.2746 -4.2029 1.2659 -4.1984 0.5926 -3.5927z"/>
</g>
<g class="tab-note">
<g color="rgb(100.0000%, 100.0000%, 100.0000%)">
<g transform="translate(4.9784, -1.2456)">
<rect x="0.0990" y="-0.6129" width="0.9902" height="1.2257" ry="0.0000" fill="currentColor"/>
</g>
</g>
<g transform="translate(5.0774, -0.7375)">
<text font-family="Roboto Serif" font-weight="bold" font-size="1.7459" text-anchor="start" fill="currentColor">
<tspan>7</tspan>
</text>
</g>
</g>
<g transform="translate(5.5725, 2.5044)">
<rect x="-0.0650" y="-2.9226" width="0.1300" height="3.6726" ry="0.0400" fill="currentColor"/>
</g>
<g transform="translate(68.4921, 3.2544)">
<polygon stroke-linejoin="round" stroke-linecap="round" stroke-width="0.0800" fill="currentColor" stroke="currentColor" points="7.1694 -0.2000 7.1694 0.2000 0.0400 0.2000 0.0400 -0.2000"/>
</g>
<g class="tab-note">
<g color="rgb(100.0000%, 100.0000%, 100.0000%)">
<g transform="translate(7.3382, -1.2456)">
<rect x="0.0990" y="-0.6495" width="0.9902" height="1.2991" ry="0.0000" fill="currentColor"/>
</g>
</g>
<g transform="translate(7.4372, -0.7532)">
<text font-family="Roboto Serif" font-weight="bold" font-size="1.7459" text-anchor="start" fill="currentColor">
<tspan>9</tspan>
</text>
</g>
</g>
<g transform="translate(7.9323, 2.5044)">
<rect x="-0.0650" y="-2.8731" width="0.1300" height="3.6231" ry="0.0400" fill="currentColor"/>
</g>
<g transform="translate(75.0425, 2.5044)">
<path stroke-width="0.0800" stroke-linejoin="round" stroke-linecap="round" stroke="currentColor" fill="currentColor" d="M0.7941 -4.7500C1.4601 -5.4577 3.2232 -5.4577 3.8891 -4.7500L3.8891 -4.7500C3.2232 -5.3377 1.4601 -5.3377 0.7941 -4.7500z"/>
</g>
<g class="tab-note">
<g color="rgb(100.0000%, 100.0000%, 100.0000%)">
<g transform="translate(9.6980, -1.2456)">
<rect x="0.0990" y="-0.6495" width="0.9902" height="1.2991" ry="0.0000" fill="currentColor"/>
</g>
</g>
<g transform="translate(9.7970, -0.7532)">
<text font-family="Roboto Serif" font-weight="bold" font-size="1.7459" text-anchor="start" fill="currentColor">
<tspan>9</tspan>
</text>
</g>
</g>
<g transform="translate(10.2921, 2.5044)">
<rect x="-0.0650" y="-2.8731" width="0.1300" height="3.6231" ry="0.0400" fill="currentColor"/>
</g>
<g transform="translate(55.4316, 5.3144)">
<polygon stroke-linejoin="round" stroke-linecap="round" stroke-width="0.0800" fill="currentColor" stroke="currentColor" points="4.5596 0.7400 4.5596 1.1400 0.0400 0.2000 0.0400 -0.2000"/>
</g>
<g class="chord-label">
<g transform="translate(12.9446, -4.4149)">
<text font-family="Roboto" font-weight="bold" font-style="italic" font-size="2.6165" text-anchor="start" fill="currentColor">
<tspan>A</tspan>
</text>
</g>
</g>
<g class="tab-note">
<g color="rgb(100.0000%, 100.0000%, 100.0000%)">
<g transform="translate(13.1946, -1.2456)">
<rect x="0.0990" y="-0.6495" width="0.9902" height="1.2991" ry="0.0000" fill="currentColor"/>
</g>
</g>
<g transform="translate(13.2936, -0.7532)">
<text font-family="Roboto Serif" font-weight="bold" font-size="1.7459" text-anchor="start" fill="currentColor">
<tspan>9</tspan>
</text>
</g>
</g>
<g transform="translate(13.7887, 2.5044)">
<rect x="-0.0650" y="-2.8731" width="0.1300" height="4.3731" ry="0.0400" fill="currentColor"/>
</g>
<g transform="translate(13.8537, 3.9644)">
<path transform="scale(0.0040, -0.0040)" d="M0 0h-16v250h16v-250zM0 0v250c97 59 224 148 224 259c0 57 -15 112 -40 163c-3 16 10 27 23 27c7 0 15 -3 20 -11c25 -56 40 -117 40 -179c0 -203 -267 -306 -267 -509z" fill="currentColor"/>
</g>
<g transform="translate(59.3721, 2.5044)">
<path stroke-width="0.0800" stroke-linejoin="round" stroke-linecap="round" stroke="currentColor" fill="currentColor" d="M1.2892 -1.2461C1.7861 -1.8283 2.8420 -1.8283 3.3389 -1.2461L3.3389 -1.2461C2.8420 -1.7083 1.7861 -1.7083 1.2892 -1.2461z"/>
</g>
<g class="tab-note">
<g color="rgb(100.0000%, 100.0000%, 100.0000%)">
<g transform="translate(15.5544, -1.2456)">
<rect x="0.0990" y="-0.6251" width="0.9902" height="1.2502" ry="0.0000" fill="currentColor"/>
</g>
</g>
<g transform="translate(15.6534, -0.7497)">
<text font-family="Roboto Serif" font-weight="bold" font-size="1.7459" text-anchor="start" fill="currentColor">
<tspan>5</tspan>
</text>
</g>
</g>
<g transform="translate(16.1485, 2.5044)">
<rect x="-0.0650" y="-2.9061" width="0.1300" height="4.4061" ry="0.0400" fill="currentColor"/>
</g>
<g transform="translate(54.9025, 2.5044)">
<path stroke-width="0.0800" stroke-linejoin="round" stroke-linecap="round" stroke="currentColor" fill="currentColor" d="M0.5928 -3.8501C1.2657 -4.4850 2.2745 -4.4891 2.9526 -3.8597L2.9526 -3.8597C2.2750 -4.3691 1.2662 -4.3650 0.5928 -3.8501z"/>
</g>
<g class="tab-note">
<g color="rgb(100.0000%, 100.0000%, 100.0000%)">
<g transform="translate(18.9349, 0.2544)">
<rect x="0.0990" y="-0.6251" width="0.9902" height="1.2502" ry="0.0000" fill="currentColor"/>
</g>
</g>
<g transform="translate(19.0339, 0.7503)">
<text font-family="Roboto Serif" font-weight="bold" font-size="1.7459" text-anchor="start" fill="currentColor">
<tspan>5</tspan>
</text>
</g>
</g>
<g transform="translate(19.5290, 2.5044)">
<rect x="-0.0650" y="-1.4061" width="0.1300" height="4.4061" ry="0.0400" fill="currentColor"/>
</g>
<g class="tab-note">
<g color="rgb(100.0000%, 100.0000%, 100.0000%)">
<g transform="translate(22.3153, 1.7544)">
<rect x="0.0990" y="-0.6129" width="0.9902" height="1.2257" ry="0.0000" fill="currentColor"/>
</g>
</g>
<g transform="translate(22.4143, 2.2625)">
<text font-family="Roboto Serif" font-weight="bold" font-size="1.7459" text-anchor="start" fill="currentColor">
<tspan>7</tspan>
</text>
</g>
</g>
<g transform="translate(22.9094, 2.5044)">
<rect x="-0.0650" y="0.0774" width="0.1300" height="4.4226" ry="0.0400" fill="currentColor"/>
</g>
<g transform="translate(35.2372, 3.2544)">
<polygon stroke-linejoin="round" stroke-linecap="round" stroke-width="0.0800" fill="currentColor" stroke="currentColor" points="7.1694 -0.2000 7.1694 0.2000 0.0400 0.2000 0.0400 -0.2000"/>
</g>
<g class="tab-note">
<g color="rgb(100.0000%, 100.0000%, 100.0000%)">
<g transform="translate(25.9458, 1.7544)">
<rect x="0.0990" y="-0.6574" width="0.9902" height="1.3148" ry="0.0000" fill="currentColor"/>
</g>
</g>
<g transform="translate(26.0448, 2.3943)">
<text font-family="Roboto Serif" font-weight="bold" font-size="1.7459" text-anchor="start" fill="currentColor">
<tspan>6</tspan>
</text>
</g>
</g>
<g transform="translate(26.5398, 2.5044)">
<rect x="-0.0650" y="0.1375" width="0.1300" height="4.3625" ry="0.0400" fill="currentColor"/>
</g>
<g transform="translate(26.6048, 6.9644)">
<path transform="scale(0.0040, -0.0040)" d="M0 0h-16v250h16v-250zM0 0v250c97 59 224 148 224 259c0 57 -15 112 -40 163c-3 16 10 27 23 27c7 0 15 -3 20 -11c25 -56 40 -117 40 -179c0 -203 -267 -306 -267 -509z" fill="currentColor"/>
</g>
<g transform="translate(41.7875, 2.5044)">
<path stroke-width="0.0800" stroke-linejoin="round" stroke-linecap="round" stroke="currentColor" fill="currentColor" d="M0.7941 -4.7500C1.4599 -5.4577 3.2225 -5.4577 3.8884 -4.7500L3.8884 -4.7500C3.2225 -5.3377 1.4599 -5.3377 0.7941 -4.7500z"/>
</g>
<g class="tab-note">
<g color="rgb(100.0000%, 100.0000%, 100.0000%)">
<g transform="translate(29.5570, 1.7544)">
<rect x="0.0990" y="-0.6574" width="0.9902" height="1.3148" ry="0.0000" fill="currentColor"/>
</g>
</g>
<g transform="translate(29.6561, 2.3943)">
<text font-family="Roboto Serif" font-weight="bold" font-size="1.7459" text-anchor="start" fill="currentColor">
<tspan>6</tspan>
</text>
</g>
</g>
<g transform="translate(92.6278, 2.5044)">
<path stroke-width="0.0800" stroke-linejoin="round" stroke-linecap="round" stroke="currentColor" fill="currentColor" d="M1.2892 -1.3760C1.4902 -1.6574 1.7811 -1.6574 1.9822 -1.3760L1.9822 -1.3760C1.7811 -1.5374 1.4902 -1.5374 1.2892 -1.3760z"/>
</g>
<g transform="translate(29.9011, 2.5044)">
<rect x="-0.0650" y="0.1375" width="0.1300" height="4.3625" ry="0.0400" fill="currentColor"/>
</g>
<g transform="translate(30.4011, 2.5044)">
<rect x="-0.0650" y="0.1375" width="0.1300" height="4.3625" ry="0.0400" fill="currentColor"/>
</g>
<g transform="translate(25.9458, 2.5044)">
<path stroke-width="0.0800" stroke-linejoin="round" stroke-linecap="round" stroke="currentColor" fill="currentColor" d="M1.2892 -1.2412C1.8167 -1.8488 2.9828 -1.8488 3.5103 -1.2412L3.5103 -1.2412C2.9828 -1.7288 1.8167 -1.7288 1.2892 -1.2412z"/>
</g>
<g class="tab-note">
<g color="rgb(100.0000%, 100.0000%, 100.0000%)">
<g transform="translate(34.7081, -1.2456)">
<rect x="0.0990" y="-0.6495" width="0.9902" height="1.2991" ry="0.0000" fill="currentColor"/>
</g>
</g>
<g transform="translate(34.8071, -0.7532)">
<text font-family="Roboto Serif" font-weight="bold" font-size="1.7459" text-anchor="start" fill="currentColor">
<tspan>9</tspan>
</text>
</g>
</g>
<g transform="translate(35.3022, 2.5044)">
<rect x="-0.0650" y="-2.8731" width="0.1300" height="3.6231" ry="0.0400" fill="currentColor"/>
</g>
<g class="tab-note">
<g color="rgb(100.0000%, 100.0000%, 100.0000%)">
<g transform="translate(37.0679, -1.2456)">
<rect x="0.0990" y="-0.6129" width="0.9902" height="1.2257" ry="0.0000" fill="currentColor"/>
</g>
</g>
<g transform="translate(37.1669, -0.7375)">
<text font-family="Roboto Serif" font-weight="bold" font-size="1.7459" text-anchor="start" fill="currentColor">
<tspan>7</tspan>
</text>
</g>
</g>
<g transform="translate(37.6620, 2.5044)">
<rect x="-0.0650" y="-2.9226" width="0.1300" height="3.6726" ry="0.0400" fill="currentColor"/>
</g>
<g transform="translate(3.1477, 3.2544)">
<polygon stroke-linejoin="round" stroke-linecap="round" stroke-width="0.0800" fill="currentColor" stroke="currentColor" points="7.1694 -0.2000 7.1694 0.2000 0.0400 0.2000 0.0400 -0.2000"/>
</g>
<g class="tab-note">
<g color="rgb(100.0000%, 100.0000%, 100.0000%)">
<g transform="translate(39.4277, -1.2456)">
<rect x="0.0990" y="-0.6251" width="0.9902" height="1.2502" ry="0.0000" fill="currentColor"/>
</g>
</g>
<g transform="translate(39.5268, -0.7497)">
<text font-family="Roboto Serif" font-weight="bold" font-size="1.7459" text-anchor="start" fill="currentColor">
<tspan>5</tspan>
</text>
</g>
</g>
<g transform="translate(40.0218, 2.5044)">
<rect x="-0.0650" y="-2.9061" width="0.1300" height="3.6561" ry="0.0400" fill="currentColor"/>
</g>
<g transform="translate(9.6980, 2.5044)">
<path stroke-width="0.0800" stroke-linejoin="round" stroke-linecap="round" stroke="currentColor" fill="currentColor" d="M0.7941 -4.7500C1.4603 -5.4579 3.2245 -5.4579 3.8907 -4.7500L3.8907 -4.7500C3.2245 -5.3379 1.4603 -5.3379 0.7941 -4.7500z"/>
</g>
<g class="tab-note">
<g color="rgb(100.0000%, 100.0000%, 100.0000%)">
<g transform="translate(41.7875, -1.2456)">
<rect x="0.0990" y="-0.6129" width="0.9902" height="1.2257" ry="0.0000" fill="currentColor"/>
</g>
</g>
<g transform="translate(41.8866, -0.7375)">
<text font-family="Roboto Serif" font-weight="bold" font-size="1.7459" text-anchor="start" fill="currentColor">
<tspan>7</tspan>
</text>
</g>
</g>
<g transform="translate(42.3816, 2.5044)">
<rect x="-0.0650" y="-2.9226" width="0.1300" height="3.6726" ry="0.0400" fill="currentColor"/>
</g>
<g class="chord-label">
<g transform="translate(45.0318, -4.4149)">
<text font-family="Roboto" font-weight="bold" font-style="italic" font-size="2.6165" text-anchor="start" fill="currentColor">
<tspan>E</tspan>
</text>
</g>
<g transform="translate(46.4658, -5.6041)">
<text font-family="Roboto" font-weight="bold" font-style="italic" font-size="1.8500" text-anchor="start" fill="currentColor">
<tspan>7</tspan>
</text>
</g>
</g>
<g class="tab-note">
<g color="rgb(100.0000%, 100.0000%, 100.0000%)">
<g transform="translate(45.2818, -1.2456)">
<rect x="0.0990" y="-0.6129" width="0.9902" height="1.2257" ry="0.0000" fill="currentColor"/>
</g>
</g>
<g transform="translate(45.3808, -0.7375)">
<text font-family="Roboto Serif" font-weight="bold" font-size="1.7459" text-anchor="start" fill="currentColor">
<tspan>7</tspan>
</text>
</g>
</g>
<g transform="translate(45.8759, 2.5044)">
<rect x="-0.0650" y="-2.9226" width="0.1300" height="4.4226" ry="0.0400" fill="currentColor"/>
</g>
<g class="tab-note">
<g color="rgb(100.0000%, 100.0000%, 100.0000%)">
<g transform="translate(48.9123, -1.2456)">
<rect x="0.0990" y="-0.6120" width="0.9902" height="1.2240" ry="0.0000" fill="currentColor"/>
</g>
</g>
<g transform="translate(49.0113, -0.7436)">
<text font-family="Roboto Serif" font-weight="bold" font-size="1.7459" text-anchor="start" fill="currentColor">
<tspan>4</tspan>
</text>
</g>
</g>
<g transform="translate(49.5713, 3.9644)">
<path transform="scale(0.0040, -0.0040)" d="M0 0h-16v250h16v-250zM0 0v250c97 59 224 148 224 259c0 57 -15 112 -40 163c-3 16 10 27 23 27c7 0 15 -3 20 -11c25 -56 40 -117 40 -179c0 -203 -267 -306 -267 -509z" fill="currentColor"/>
</g>
<g transform="translate(88.6873, 5.3144)">
<polygon stroke-linejoin="round" stroke-linecap="round" stroke-width="0.0800" fill="currentColor" stroke="currentColor" points="4.5596 0.7400 4.5596 1.1400 0.0400 0.2000 0.0400 -0.2000"/>
</g>
<g transform="translate(51.8662, 2.5044)">
<rect x="-0.0650" y="-1.4061" width="0.1300" height="4.4061" ry="0.0400" fill="currentColor"/>
</g>
<g class="tab-note">
<g color="rgb(100.0000%, 100.0000%, 100.0000%)">
<g transform="translate(54.9025, 0.2544)">
<rect x="0.0990" y="-0.6251" width="0.9902" height="1.2502" ry="0.0000" fill="currentColor"/>
</g>
</g>
<g transform="translate(55.0015, 0.7503)">
<text font-family="Roboto Serif" font-weight="bold" font-size="1.7459" text-anchor="start" fill="currentColor">
<tspan>5</tspan>
</text>
</g>
</g>
<g transform="translate(55.4966, 2.5044)">
<rect x="-0.0650" y="-1.4061" width="0.1300" height="4.2294" ry="0.0400" fill="currentColor"/>
</g>
<g class="tab-note">
<g color="rgb(100.0000%, 100.0000%, 100.0000%)">
<g transform="translate(57.2623, 0.2544)">
<rect x="0.0990" y="-0.6347" width="0.9902" height="1.2694" ry="0.0000" fill="currentColor"/>
</g>
</g>
<g transform="translate(57.3613, 0.7599)">
<text font-family="Roboto Serif" font-weight="bold" font-size="1.7459" text-anchor="start" fill="currentColor">
<tspan>3</tspan>
</text>
</g>
</g>
<g transform="translate(57.8564, 2.5044)">
<rect x="-0.0650" y="-1.3932" width="0.1300" height="4.6987" ry="0.0400" fill="currentColor"/>
</g>
<g class="tab-note">
<g color="rgb(100.0000%, 100.0000%, 100.0000%)">
<g transform="translate(59.3721, 1.7544)">
<rect x="0.0990" y="-0.6120" width="0.9902" height="1.2240" ry="0.0000" fill="currentColor"/>
</g>
</g>
<g transform="translate(59.4711, 2.2564)">
<text font-family="Roboto Serif" font-weight="bold" font-size="1.7459" text-anchor="start" fill="currentColor">
<tspan>4</tspan>
</text>
</g>
</g>
<g transform="translate(59.9662, 2.5044)">
<rect x="-0.0650" y="0.0762" width="0.1300" height="3.6605" ry="0.0400" fill="currentColor"/>
</g>
<g class="tab-note">
<g color="rgb(100.0000%, 100.0000%, 100.0000%)">
<g transform="translate(62.8120, 1.7544)">
<rect x="0.0990" y="-0.6120" width="0.9902" height="1.2240" ry="0.0000" fill="currentColor"/>
</g>
</g>
<g transform="translate(62.9110, 2.2564)">
<text font-family="Roboto Serif" font-weight="bold" font-size="1.7459" text-anchor="start" fill="currentColor">
<tspan>4</tspan>
</text>
</g>
</g>
<g transform="translate(63.1561, 2.5044)">
<rect x="-0.0650" y="0.0762" width="0.1300" height="4.4238" ry="0.0400" fill="currentColor"/>
</g>
<g transform="translate(63.6561, 2.5044)">
<rect x="-0.0650" y="0.0762" width="0.1300" height="4.4238" ry="0.0400" fill="currentColor"/>
</g>
<g class="tab-note">
<g color="rgb(100.0000%, 100.0000%, 100.0000%)">
<g transform="translate(67.9631, -1.2456)">
<rect x="0.0990" y="-0.6129" width="0.9902" height="1.2257" ry="0.0000" fill="currentColor"/>
</g>
</g>
<g transform="translate(68.0621, -0.7375)">
<text font-family="Roboto Serif" font-weight="bold" font-size="1.7459" text-anchor="start" fill="currentColor">
<tspan>7</tspan>
</text>
</g>
</g>
<g transform="translate(68.5571, 2.5044)">
<rect x="-0.0650" y="-2.9226" width="0.1300" height="3.6726" ry="0.0400" fill="currentColor"/>
</g>
<g class="tab-note">
<g color="rgb(100.0000%, 100.0000%, 100.0000%)">
<g transform="translate(70.3229, -1.2456)">
<rect x="0.0990" y="-0.6251" width="0.9902" height="1.2502" ry="0.0000" fill="currentColor"/>
</g>
</g>
<g transform="translate(70.4219, -0.7497)">
<text font-family="Roboto Serif" font-weight="bold" font-size="1.7459" text-anchor="start" fill="currentColor">
<tspan>5</tspan>
</text>
</g>
</g>
<g transform="translate(70.9170, 2.5044)">
<rect x="-0.0650" y="-2.9061" width="0.1300" height="3.6561" ry="0.0400" fill="currentColor"/>
</g>
<g class="tab-note">
<g color="rgb(100.0000%, 100.0000%, 100.0000%)">
<g transform="translate(72.6827, -1.2456)">
<rect x="0.0990" y="-0.6120" width="0.9902" height="1.2240" ry="0.0000" fill="currentColor"/>
</g>
</g>
<g transform="translate(72.7817, -0.7436)">
<text font-family="Roboto Serif" font-weight="bold" font-size="1.7459" text-anchor="start" fill="currentColor">
<tspan>4</tspan>
</text>
</g>
</g>
<g transform="translate(73.2768, 2.5044)">
<rect x="-0.0650" y="-2.9238" width="0.1300" height="3.6738" ry="0.0400" fill="currentColor"/>
</g>
<g class="tab-note">
<g color="rgb(100.0000%, 100.0000%, 100.0000%)">
<g transform="translate(75.0425, -1.2456)">
<rect x="0.0990" y="-0.6251" width="0.9902" height="1.2502" ry="0.0000" fill="currentColor"/>
</g>
</g>
<g transform="translate(75.1415, -0.7497)">
<text font-family="Roboto Serif" font-weight="bold" font-size="1.7459" text-anchor="start" fill="currentColor">
<tspan>5</tspan>
</text>
</g>
</g>
<g transform="translate(75.6366, 2.5044)">
<rect x="-0.0650" y="-2.9061" width="0.1300" height="3.6561" ry="0.0400" fill="currentColor"/>
</g>
<g transform="translate(93.2219, 2.5044)">
<rect x="-0.0650" y="0.0196" width="0.1300" height="3.7171" ry="0.0400" fill="currentColor"/>
</g>
<g class="tab-note">
<g color="rgb(100.0000%, 100.0000%, 100.0000%)">
<g transform="translate(92.6278, 1.7544)">
<rect x="0.0990" y="-0.5701" width="0.9902" height="1.1402" ry="0.0000" fill="currentColor"/>
</g>
</g>
<g transform="translate(92.7268, 2.3245)">
<text font-family="Roboto Serif" font-weight="bold" font-size="1.7459" text-anchor="start" fill="currentColor">
<tspan>2</tspan>
</text>
</g>
</g>
<g class="chord-label">
<g transform="translate(78.2875, -4.4149)">
<text font-family="Roboto" font-weight="bold" font-style="italic" font-size="2.6165" text-anchor="start" fill="currentColor">
<tspan>F</tspan>
</text>
</g>
<g transform="translate(79.6874, -5.0149)">
<path transform="scale(0.0042, -0.0042)" d="M0 119c0 8 5 15 13 18l46 17v158c0 10 8 19 18 19s19 -9 19 -19v-145l83 31v158c0 10 9 19 19 19s18 -9 18 -19v-145l32 12c2 1 5 1 7 1c11 0 20 -9 20 -20v-60c0 -8 -5 -16 -13 -19l-46 -16v-160l32 11c2 1 5 1 7 1c11 0 20 -9 20 -20v-60c0 -8 -5 -15 -13 -18l-46 -17
v-158c0 -10 -8 -19 -18 -19s-19 9 -19 19v145l-83 -31v-158c0 -10 -9 -19 -19 -19s-18 9 -18 19v145l-32 -12c-2 -1 -5 -1 -7 -1c-11 0 -20 9 -20 20v60c0 8 5 16 13 19l46 16v160l-32 -11c-2 -1 -5 -1 -7 -1c-11 0 -20 9 -20 20v60zM179 95l-83 -30v-160l83 30v160z" fill="currentColor"/>
</g>
<g transform="translate(80.8528, -4.4149)">
<text font-family="Roboto" font-weight="bold" font-style="italic" font-size="2.6165" text-anchor="start" fill="currentColor">
<tspan>m</tspan>
</text>
</g>
</g>
<g class="tab-note">
<g color="rgb(100.0000%, 100.0000%, 100.0000%)">
<g transform="translate(78.5375, -1.2456)">
<rect x="0.0990" y="-0.6251" width="0.9902" height="1.2502" ry="0.0000" fill="currentColor"/>
</g>
</g>
<g transform="translate(78.6365, -0.7497)">
<text font-family="Roboto Serif" font-weight="bold" font-size="1.7459" text-anchor="start" fill="currentColor">
<tspan>5</tspan>
</text>
</g>
</g>
<g transform="translate(-0.0600, 2.5044)">
<rect x="0.0000" y="-3.8000" width="0.1600" height="7.6000" ry="0.0500" fill="currentColor"/>
</g>
<g transform="translate(79.1316, 2.5044)">
<rect x="-0.0650" y="-2.9061" width="0.1300" height="4.4061" ry="0.0400" fill="currentColor"/>
</g>
<g class="tab-note">
<g color="rgb(100.0000%, 100.0000%, 100.0000%)">
<g transform="translate(82.1680, -1.2456)">
<rect x="0.0990" y="-0.5701" width="0.9902" height="1.1402" ry="0.0000" fill="currentColor"/>
</g>
</g>
<g transform="translate(82.2670, -0.6755)">
<text font-family="Roboto Serif" font-weight="bold" font-size="1.7459" text-anchor="start" fill="currentColor">
<tspan>2</tspan>
</text>
</g>
</g>
<g transform="translate(82.7621, 2.5044)">
<rect x="-0.0650" y="-2.9804" width="0.1300" height="4.4804" ry="0.0400" fill="currentColor"/>
</g>
<g transform="translate(82.8271, 3.9644)">
<path transform="scale(0.0040, -0.0040)" d="M0 0h-16v250h16v-250zM0 0v250c97 59 224 148 224 259c0 57 -15 112 -40 163c-3 16 10 27 23 27c7 0 15 -3 20 -11c25 -56 40 -117 40 -179c0 -203 -267 -306 -267 -509z" fill="currentColor"/>
</g>
<g class="tab-note">
<g color="rgb(100.0000%, 100.0000%, 100.0000%)">
<g transform="translate(84.5278, 0.2544)">
<rect x="0.0990" y="-0.5701" width="0.9902" height="1.1402" ry="0.0000" fill="currentColor"/>
</g>
</g>
<g transform="translate(84.6268, 0.8245)">
<text font-family="Roboto Serif" font-weight="bold" font-size="1.7459" text-anchor="start" fill="currentColor">
<tspan>2</tspan>
</text>
</g>
</g>
<g transform="translate(85.1219, 2.5044)">
<rect x="-0.0650" y="-1.4804" width="0.1300" height="4.4804" ry="0.0400" fill="currentColor"/>
</g>
<g class="tab-note">
<g color="rgb(100.0000%, 100.0000%, 100.0000%)">
<g transform="translate(88.1582, 0.2544)">
<rect x="0.0990" y="-0.5701" width="0.9902" height="1.1402" ry="0.0000" fill="currentColor"/>
</g>
</g>
<g transform="translate(88.2572, 0.8245)">
<text font-family="Roboto Serif" font-weight="bold" font-size="1.7459" text-anchor="start" fill="currentColor">
<tspan>2</tspan>
</text>
</g>
</g>
<g transform="translate(88.7523, 2.5044)">
<rect x="-0.0650" y="-1.4804" width="0.1300" height="4.3037" ry="0.0400" fill="currentColor"/>
</g>
<g class="tab-note">
<g color="rgb(100.0000%, 100.0000%, 100.0000%)">
<g transform="translate(90.5180, 0.2544)">
<rect x="0.0990" y="-0.5806" width="0.9902" height="1.1611" ry="0.0000" fill="currentColor"/>
</g>
</g>
<g transform="translate(90.6170, 0.8158)">
<text font-family="Roboto Serif" font-weight="bold" font-size="1.7459" text-anchor="start" fill="currentColor">
<tspan>0</tspan>
</text>
</g>
</g>
<g transform="translate(17.4272, 15.4631)">
<rect x="0.0000" y="-3.7500" width="0.1900" height="7.5000" ry="0.0000" fill="currentColor"/>
</g>
<g transform="translate(0.0000, 19.2131)">
<line stroke-linejoin="round" stroke-linecap="round" stroke-width="0.1000" stroke="currentColor" x1="0.0500" y1="0" x2="41.9008" y2="0"/>
</g>
<g transform="translate(0.0000, 17.7131)">
<line stroke-linejoin="round" stroke-linecap="round" stroke-width="0.1000" stroke="currentColor" x1="0.0500" y1="0" x2="41.9008" y2="0"/>
</g>
<g transform="translate(0.0000, 16.2131)">
<line stroke-linejoin="round" stroke-linecap="round" stroke-width="0.1000" stroke="currentColor" x1="0.0500" y1="0" x2="41.9008" y2="0"/>
</g>
<g transform="translate(0.0000, 14.7131)">
<line stroke-linejoin="round" stroke-linecap="round" stroke-width="0.1000" stroke="currentColor" x1="0.0500" y1="0" x2="41.9008" y2="0"/>
</g>
<g transform="translate(0.0000, 13.2131)">
<line stroke-linejoin="round" stroke-linecap="round" stroke-width="0.1000" stroke="currentColor" x1="0.0500" y1="0" x2="41.9008" y2="0"/>
</g>
<g transform="translate(0.0000, 11.7131)">
<line stroke-linejoin="round" stroke-linecap="round" stroke-width="0.1000" stroke="currentColor" x1="0.0500" y1="0" x2="41.9008" y2="0"/>
</g>
<g transform="translate(41.7608, 15.4631)">
<rect x="0.0000" y="-3.7500" width="0.1900" height="7.5000" ry="0.0000" fill="currentColor"/>
</g>
<g transform="translate(41.2708, 15.4631)">
<rect x="0.0000" y="-3.7500" width="0.1900" height="7.5000" ry="0.0000" fill="currentColor"/>
</g>
<g transform="translate(33.2916, 15.4631)">
<rect x="0.0000" y="-3.7500" width="0.1900" height="7.5000" ry="0.0000" fill="currentColor"/>
</g>
<g transform="translate(0.0000, 15.4631)">
<path stroke-width="0.0800" stroke-linejoin="round" stroke-linecap="round" stroke="currentColor" fill="currentColor" d="M0.2000 -1.3014C0.6302 -1.8239 1.4688 -1.8239 1.8990 -1.3014L1.8990 -1.3014C1.4688 -1.7039 0.6302 -1.7039 0.2000 -1.3014z"/>
</g>
<g transform="translate(31.0024, 15.4631)">
<path stroke-width="0.0800" stroke-linejoin="round" stroke-linecap="round" stroke="currentColor" fill="currentColor" d="M1.2892 1.2233C1.9397 1.9210 3.6276 1.9210 4.2782 1.2233L4.2782 1.2233C3.6276 1.8010 1.9397 1.8010 1.2892 1.2233z"/>
</g>
<g class="tab-note">
<g color="rgb(100.0000%, 100.0000%, 100.0000%)">
<g transform="translate(2.0000, 14.7131)">
<rect x="0.0990" y="-0.5701" width="0.9902" height="1.1402" ry="0.0000" fill="currentColor"/>
</g>
</g>
<g transform="translate(2.0990, 15.2832)">
<text font-family="Roboto Serif" font-weight="bold" font-size="1.7459" text-anchor="start" fill="currentColor">
<tspan>2</tspan>
</text>
</g>
</g>
<g transform="translate(3.5392, 13.9631)">
<path transform="scale(0.0040, -0.0040)" d="M0 0c0 31 25 56 56 56s56 -25 56 -56s-25 -56 -56 -56s-56 25 -56 56z" fill="currentColor"/>
</g>
<g transform="translate(2.5941, 15.4631)">
<rect x="-0.0650" y="0.0196" width="0.1300" height="4.4804" ry="0.0400" fill="currentColor"/>
</g>
<g class="tab-note">
<g color="rgb(100.0000%, 100.0000%, 100.0000%)">
<g transform="translate(6.1911, 14.7131)">
<rect x="0.0990" y="-0.5701" width="0.9902" height="1.1402" ry="0.0000" fill="currentColor"/>
</g>
</g>
<g transform="translate(6.2901, 15.2832)">
<text font-family="Roboto Serif" font-weight="bold" font-size="1.7459" text-anchor="start" fill="currentColor">
<tspan>2</tspan>
</text>
</g>
</g>
<g transform="translate(6.7852, 15.4631)">
<rect x="-0.0650" y="0.0196" width="0.1300" height="4.4804" ry="0.0400" fill="currentColor"/>
</g>
<g transform="translate(6.8502, 19.9231)">
<path transform="scale(0.0040, -0.0040)" d="M0 0h-16v250h16v-250zM0 0v250c97 59 224 148 224 259c0 57 -15 112 -40 163c-3 16 10 27 23 27c7 0 15 -3 20 -11c25 -56 40 -117 40 -179c0 -203 -267 -306 -267 -509z" fill="currentColor"/>
</g>
<g transform="translate(9.0094, 16.2131)">
<polygon stroke-linejoin="round" stroke-linecap="round" stroke-width="0.0800" fill="currentColor" stroke="currentColor" points="6.9575 -0.2000 6.9575 0.2000 0.0400 0.2000 0.0400 -0.2000"/>
</g>
<g class="tab-note">
<g color="rgb(100.0000%, 100.0000%, 100.0000%)">
<g transform="translate(8.4803, 11.7131)">
<rect x="0.0990" y="-0.5701" width="0.9902" height="1.1402" ry="0.0000" fill="currentColor"/>
</g>
</g>
<g transform="translate(8.5793, 12.2832)">
<text font-family="Roboto Serif" font-weight="bold" font-size="1.7459" text-anchor="start" fill="currentColor">
<tspan>2</tspan>
</text>
</g>
</g>
<g transform="translate(9.0744, 15.4631)">
<rect x="-0.0650" y="-2.9804" width="0.1300" height="3.7304" ry="0.0400" fill="currentColor"/>
</g>
<g transform="translate(15.3478, 15.4631)">
<path stroke-width="0.0800" stroke-linejoin="round" stroke-linecap="round" stroke="currentColor" fill="currentColor" d="M0.7941 -4.7500C1.4460 -5.4486 3.1402 -5.4486 3.7920 -4.7500L3.7920 -4.7500C3.1402 -5.3286 1.4460 -5.3286 0.7941 -4.7500z"/>
</g>
<g class="tab-note">
<g color="rgb(100.0000%, 100.0000%, 100.0000%)">
<g transform="translate(10.7695, 11.7131)">
<rect x="0.0990" y="-0.6120" width="0.9902" height="1.2240" ry="0.0000" fill="currentColor"/>
</g>
</g>
<g transform="translate(10.8685, 12.2151)">
<text font-family="Roboto Serif" font-weight="bold" font-size="1.7459" text-anchor="start" fill="currentColor">
<tspan>4</tspan>
</text>
</g>
</g>
<g transform="translate(11.3636, 15.4631)">
<rect x="-0.0650" y="-2.9238" width="0.1300" height="3.6738" ry="0.0400" fill="currentColor"/>
</g>
<g class="tab-note">
<g color="rgb(100.0000%, 100.0000%, 100.0000%)">
<g transform="translate(13.0586, 11.7131)">
<rect x="0.0990" y="-0.6251" width="0.9902" height="1.2502" ry="0.0000" fill="currentColor"/>
</g>
</g>
<g transform="translate(13.1577, 12.2090)">
<text font-family="Roboto Serif" font-weight="bold" font-size="1.7459" text-anchor="start" fill="currentColor">
<tspan>5</tspan>
</text>
</g>
</g>
<g transform="translate(13.6527, 15.4631)">
<rect x="-0.0650" y="-2.9061" width="0.1300" height="3.6561" ry="0.0400" fill="currentColor"/>
</g>
<g class="tab-note">
<g color="rgb(100.0000%, 100.0000%, 100.0000%)">
<g transform="translate(15.3478, 11.7131)">
<rect x="0.0990" y="-0.6251" width="0.9902" height="1.2502" ry="0.0000" fill="currentColor"/>
</g>
</g>
<g transform="translate(15.4468, 12.2090)">
<text font-family="Roboto Serif" font-weight="bold" font-size="1.7459" text-anchor="start" fill="currentColor">
<tspan>5</tspan>
</text>
</g>
</g>
<g transform="translate(15.9419, 15.4631)">
<rect x="-0.0650" y="-2.9061" width="0.1300" height="3.6561" ry="0.0400" fill="currentColor"/>
</g>
<g class="chord-label">
<g transform="translate(18.4957, 9.5338)">
<text font-family="Roboto" font-weight="bold" font-style="italic" font-size="2.6165" text-anchor="start" fill="currentColor">
<tspan>A</tspan>
</text>
</g>
<g transform="translate(20.2029, 8.3446)">
<text font-family="Roboto" font-weight="bold" font-style="italic" font-size="1.8500" text-anchor="start" fill="currentColor">
<tspan>sus</tspan>
</text>
</g>
<g transform="translate(23.0709, 8.3446)">
<text font-family="Roboto" font-weight="bold" font-style="italic" font-size="1.8500" text-anchor="start" fill="currentColor">
<tspan>4</tspan>
</text>
</g>
</g>
<g class="tab-note">
<g color="rgb(100.0000%, 100.0000%, 100.0000%)">
<g transform="translate(18.7457, 11.7131)">
<rect x="0.0990" y="-0.6251" width="0.9902" height="1.2502" ry="0.0000" fill="currentColor"/>
</g>
</g>
<g transform="translate(18.8448, 12.2090)">
<text font-family="Roboto Serif" font-weight="bold" font-size="1.7459" text-anchor="start" fill="currentColor">
<tspan>5</tspan>
</text>
</g>
</g>
<g transform="translate(19.3398, 15.4631)">
<rect x="-0.0650" y="-2.9061" width="0.1300" height="4.4061" ry="0.0400" fill="currentColor"/>
</g>
<g class="tab-note">
<g color="rgb(100.0000%, 100.0000%, 100.0000%)">
<g transform="translate(21.0349, 11.7131)">
<rect x="0.0990" y="-0.5701" width="0.9902" height="1.1402" ry="0.0000" fill="currentColor"/>
</g>
</g>
<g transform="translate(21.1339, 12.2832)">
<text font-family="Roboto Serif" font-weight="bold" font-size="1.7459" text-anchor="start" fill="currentColor">
<tspan>2</tspan>
</text>
</g>
</g>
<g transform="translate(21.6290, 15.4631)">
<rect x="-0.0650" y="-2.9804" width="0.1300" height="4.4804" ry="0.0400" fill="currentColor"/>
</g>
<g class="tab-note">
<g color="rgb(100.0000%, 100.0000%, 100.0000%)">
<g transform="translate(24.2741, 13.2131)">
<rect x="0.0990" y="-0.6347" width="0.9902" height="1.2694" ry="0.0000" fill="currentColor"/>
</g>
</g>
<g transform="translate(24.3731, 13.7186)">
<text font-family="Roboto Serif" font-weight="bold" font-size="1.7459" text-anchor="start" fill="currentColor">
<tspan>3</tspan>
</text>
</g>
</g>
<g transform="translate(24.8682, 15.4631)">
<rect x="-0.0650" y="-1.3932" width="0.1300" height="4.3932" ry="0.0400" fill="currentColor"/>
</g>
<g class="tab-note">
<g color="rgb(100.0000%, 100.0000%, 100.0000%)">
<g transform="translate(27.5133, 14.7131)">
<rect x="0.0990" y="-0.5701" width="0.9902" height="1.1402" ry="0.0000" fill="currentColor"/>
</g>
</g>
<g transform="translate(27.6123, 15.2832)">
<text font-family="Roboto Serif" font-weight="bold" font-size="1.7459" text-anchor="start" fill="currentColor">
<tspan>2</tspan>
</text>
</g>
</g>
<g transform="translate(28.1073, 15.4631)">
<rect x="-0.0650" y="0.0196" width="0.1300" height="4.4804" ry="0.0400" fill="currentColor"/>
</g>
<g class="tab-note">
<g color="rgb(100.0000%, 100.0000%, 100.0000%)">
<g transform="translate(31.0024, 16.2131)">
<rect x="0.0990" y="-0.6120" width="0.9902" height="1.2240" ry="0.0000" fill="currentColor"/>
</g>
</g>
<g transform="translate(31.1014, 16.7151)">
<text font-family="Roboto Serif" font-weight="bold" font-size="1.7459" text-anchor="start" fill="currentColor">
<tspan>4</tspan>
</text>
</g>
</g>
<g transform="translate(31.5965, 15.4631)">
<rect x="-0.0650" y="-4.5000" width="0.1300" height="4.4238" ry="0.0400" fill="currentColor"/>
</g>
<g transform="translate(31.6615, 11.0031)">
<path transform="scale(0.0040, -0.0040)" d="M0 0v-250h-16v250h16zM0 0c0 -197 207 -336 207 -533c0 -71 -15 -141 -41 -207c-5 -8 -13 -12 -20 -12c-13 0 -26 11 -23 27c26 61 42 126 42 192c0 103 -94 208 -165 283v250z" fill="currentColor"/>
</g>
<g class="tab-note">
<g color="rgb(100.0000%, 100.0000%, 100.0000%)">
<g transform="translate(35.3816, 16.2131)">
<rect x="0.0990" y="-0.6120" width="0.9902" height="1.2240" ry="0.0000" fill="currentColor"/>
</g>
</g>
<g transform="translate(35.4806, 16.7151)">
<text font-family="Roboto Serif" font-weight="bold" font-size="1.7459" text-anchor="start" fill="currentColor">
<tspan>4</tspan>
</text>
</g>
</g>
<g transform="translate(-0.0600, 15.4631)">
<rect x="0.0000" y="-3.8000" width="0.1600" height="7.6000" ry="0.0500" fill="currentColor"/>
</g>
<g transform="translate(19.4048, 16.9231)">
<path transform="scale(0.0040, -0.0040)" d="M0 0h-16v250h16v-250zM0 0v250c97 59 224 148 224 259c0 57 -15 112 -40 163c-3 16 10 27 23 27c7 0 15 -3 20 -11c25 -56 40 -117 40 -179c0 -203 -267 -306 -267 -509z" fill="currentColor"/>
</g>
</svg>
