<svg xmlns="http://www.w3.org/2000/svg" style="display: none;">
    <symbol id="evald-play" viewBox="0 0 48 48">
        <g class="nc-icon-wrapper">
            <path d="M20 33l12-9-12-9v18zm4-29C12.95 4 4 12.95 4 24s8.95 20 20 20 20-8.95 20-20S35.05 4 24 4zm0 36c-8.82 0-16-7.18-16-16S15.18 8 24 8s16 7.18 16 16-7.18 16-16 16z" />
        </g>
    </symbol>
    <symbol id="evald-pause" viewBox="0 0 48 48">
        <g class="nc-icon-wrapper">
            <path d="M18 32h4V16h-4v16zm6-28C12.95 4 4 12.95 4 24s8.95 20 20 20 20-8.95 20-20S35.05 4 24 4zm0 36c-8.82 0-16-7.18-16-16S15.18 8 24 8s16 7.18 16 16-7.18 16-16 16zm2-8h4V16h-4v16z" />
        </g>
    </symbol>
    <symbol id="evald-mail" viewBox="0 0 50 50">
        <g class="nc-icon-wrapper">
            <description>Created with Sketch (http://www.bohemiancoding.com/sketch)</description>
            <g id="Page-1" stroke="none" stroke-width="1" fill="none" fill-rule="evenodd">
                <g id="Mail">
                    <path d="M25 0C11.193 0 0 11.193 0 25s11.193 25 25 25 25-11.193 25-25S38.807 0 25 0zm0 3C12.85 3 3 12.85 3 25s9.85 22 22 22 22-9.85 22-22S37.15 3 25 3zm12 28.965V17l-8.737 8.464 8.737 6.5zm-24 0l8.737-6.502L13 17v14.965zm9.914-5.36L13 33h24l-9.914-6.395L25 28.625l-2.086-2.02zM13.72 17L25 26.058 36.28 17H13.72zm0 0" id="Oval-1" />
                </g>
            </g>
        </g>
    </symbol>
    <symbol id="evald-sc" viewBox="0 0 50 50">
        <g class="nc-icon-wrapper">
            <description>Created with Sketch (http://www.bohemiancoding.com/sketch)</description>
            <g id="Page-1" stroke="none" stroke-width="1" fill="none" fill-rule="evenodd">
                <g id="SoundCloud">
                    <path d="M25 0C11.193 0 0 11.193 0 25s11.193 25 25 25 25-11.193 25-25S38.807 0 25 0zm0 3C12.85 3 3 12.85 3 25s9.85 22 22 22 22-9.85 22-22S37.15 3 25 3zM11.205 26.5L11 28.29l.205 1.76c.007.074.054.126.112.126.057 0 .103-.052.112-.125l.242-1.761-.242-1.791c-.009-.074-.056-.126-.112-.126-.058 0-.105.052-.112.126zm1.645-1.105l-.275 2.895.275 2.83c.008.077.057.131.117.131.058 0 .106-.053.116-.13l.313-2.831-.313-2.895c-.01-.077-.057-.13-.116-.13-.06 0-.109.054-.117.13zm1.547-.633l-.247 3.529.247 3.414c.006.106.078.186.164.186.086 0 .157-.08.164-.186l.281-3.414-.28-3.53c-.008-.106-.079-.186-.165-.186-.086 0-.157.08-.164.187zm1.56.255l-.232 3.274.233 3.443c.007.121.087.213.188.213.1 0 .18-.092.188-.213l.264-3.443-.264-3.275c-.007-.121-.088-.212-.188-.212-.101 0-.182.092-.188.213zm1.563-2.051l-.22 5.326.22 3.443c.005.134.113.24.226.24.112 0 .226-.106.226-.241l.233-3.442-.255-5.326c-.006-.135-.107-.242-.219-.242-.113 0-.206.107-.211.242zm1.56-1.217l-.205 6.544.205 3.42c.006.15.11.269.236.269s.23-.119.236-.27l.231-3.419-.231-6.544c-.006-.152-.11-.27-.236-.27-.127 0-.23.119-.236.27zm1.547-.785l-.177 7.33.177 3.365c.004.18.156.322.31.322.155 0 .311-.142.311-.324l.172-3.363-.213-7.33c-.005-.182-.143-.325-.297-.325s-.28.143-.283.325zm1.547.45l-.149 6.881.149 3.312c.003.211.153.378.335.378.182 0 .335-.167.335-.38l.163-3.31-.168-6.882c-.005-.213-.152-.38-.334-.38-.182 0-.328.167-.331.38zm1.582-2.05l-.155 8.933.155 3.242c.003.237.191.432.398.432.207 0 .398-.195.398-.436l.15-3.238-.178-8.933c-.003-.24-.182-.435-.388-.435-.207 0-.377.196-.38.436zm10.468 5.013C33.95 20.803 31.347 18 28.172 18c-.777 0-1.53.176-2.2.474-.26.116-.328.235-.328.466v12.585c0 .242.163.445.369.468.008.002 9.483.007 9.544.007C37.459 32 39 30.225 39 28.035s-1.543-3.966-3.444-3.966c-.472 0-.922.11-1.332.308zm0 0" id="Oval-1" />
                </g>
            </g>
        </g>
    </symbol>
    <symbol id="evald-li" viewBox="0 0 50 50">
        <g class="nc-icon-wrapper">
            <description>Created with Sketch (http://www.bohemiancoding.com/sketch)</description>
            <g id="Page-1" stroke="none" stroke-width="1" fill="none" fill-rule="evenodd">
                <g id="LinkedIn">
                    <path d="M25 50c13.807 0 25-11.193 25-25S38.807 0 25 0 0 11.193 0 25s11.193 25 25 25zm0-3c12.15 0 22-9.85 22-22S37.15 3 25 3 3 12.85 3 25s9.85 22 22 22zM14 20.118v14.54h4.71v-14.54H14zM16.665 13C15.053 13 14 14.086 14 15.512c0 1.396 1.022 2.513 2.604 2.513h.03c1.642 0 2.665-1.117 2.665-2.513-.03-1.426-1.023-2.512-2.634-2.512zm13.912 7.118c-2.5 0-3.62 1.411-4.246 2.401v-2.06h-4.71c.062 1.365 0 14.541 0 14.541h4.71v-8.12c0-.435.031-.868.156-1.18.34-.868 1.115-1.767 2.416-1.767 1.705 0 2.387 1.334 2.387 3.288V35H36v-8.337c0-4.466-2.324-6.545-5.423-6.545zm0 0" id="Oval-1" />
                </g>
            </g>
        </g>
    </symbol>
</svg>
