<?xml-stylesheet type="text/css" href="/css/ly-svg.css" ?>
<svg xmlns="http://www.w3.org/2000/svg" xmlns:xlink="http://www.w3.org/1999/xlink" version="1.2" width="123.62mm" height="23.58mm" viewBox="-0.0600 -6.5294 70.3491 13.4185">
<style type="text/css">
<![CDATA[
tspan { white-space: pre; }
]]>
</style>
<g transform="translate(19.6198, 2.5044)">
<rect x="0.0000" y="-3.7500" width="0.1900" height="7.5000" ry="0.0000" fill="currentColor"/>
</g>
<g transform="translate(0.0000, 6.2544)">
<line stroke-linejoin="round" stroke-linecap="round" stroke-width="0.1000" stroke="currentColor" x1="0.0500" y1="0" x2="70.2391" y2="0"/>
</g>
<g transform="translate(0.0000, 4.7544)">
<line stroke-linejoin="round" stroke-linecap="round" stroke-width="0.1000" stroke="currentColor" x1="0.0500" y1="0" x2="70.2391" y2="0"/>
</g>
<g transform="translate(0.0000, 3.2544)">
<line stroke-linejoin="round" stroke-linecap="round" stroke-width="0.1000" stroke="currentColor" x1="0.0500" y1="0" x2="70.2391" y2="0"/>
</g>
<g transform="translate(0.0000, 1.7544)">
<line stroke-linejoin="round" stroke-linecap="round" stroke-width="0.1000" stroke="currentColor" x1="0.0500" y1="0" x2="70.2391" y2="0"/>
</g>
<g transform="translate(0.0000, 0.2544)">
<line stroke-linejoin="round" stroke-linecap="round" stroke-width="0.1000" stroke="currentColor" x1="0.0500" y1="0" x2="70.2391" y2="0"/>
</g>
<g transform="translate(0.0000, -1.2456)">
<line stroke-linejoin="round" stroke-linecap="round" stroke-width="0.1000" stroke="currentColor" x1="0.0500" y1="0" x2="70.2391" y2="0"/>
</g>
<g transform="translate(70.0991, 2.5044)">
<rect x="0.0000" y="-3.7500" width="0.1900" height="7.5000" ry="0.0000" fill="currentColor"/>
</g>
<g transform="translate(54.5097, 2.5044)">
<rect x="0.0000" y="-3.7500" width="0.1900" height="7.5000" ry="0.0000" fill="currentColor"/>
</g>
<g transform="translate(35.7999, 2.5044)">
<rect x="0.0000" y="-3.7500" width="0.1900" height="7.5000" ry="0.0000" fill="currentColor"/>
</g>
<g transform="translate(40.9082, -1.2456)">
<polygon stroke-linejoin="round" stroke-linecap="round" stroke-width="0.0800" fill="currentColor" stroke="currentColor" points="2.3792 -0.2000 2.3792 0.2000 0.0400 0.2000 0.0400 -0.2000"/>
</g>
<g class="tab-note">
<g color="rgb(100.0000%, 100.0000%, 100.0000%)">
<g transform="translate(63.1602, 3.2544)">
<rect x="0.0990" y="-0.6495" width="0.9902" height="1.2991" ry="0.0000" fill="currentColor"/>
</g>
</g>
<g transform="translate(63.2592, 3.7468)">
<text font-family="Roboto Serif" font-weight="bold" font-size="1.7459" text-anchor="start" fill="currentColor">
<tspan>9</tspan>
</text>
</g>
</g>
<g class="tab-note">
<g color="rgb(100.0000%, 100.0000%, 100.0000%)">
<g transform="translate(36.8899, 4.7544)">
<rect x="0.0990" y="-0.5701" width="0.9902" height="1.1402" ry="0.0000" fill="currentColor"/>
</g>
</g>
<g transform="translate(36.9889, 5.3245)">
<text font-family="Roboto Serif" font-weight="bold" font-size="1.7459" text-anchor="start" fill="currentColor">
<tspan>2</tspan>
</text>
</g>
</g>
<g class="chord-label">
<g transform="translate(1.7500, -4.0250)">
<text font-family="Roboto" font-weight="bold" font-style="italic" font-size="2.6165" text-anchor="start" fill="currentColor">
<tspan>E</tspan>
</text>
</g>
<g transform="translate(3.1840, -5.2142)">
<text font-family="Roboto" font-weight="bold" font-style="italic" font-size="1.8500" text-anchor="start" fill="currentColor">
<tspan>5</tspan>
</text>
</g>
</g>
<g class="tab-note">
<g color="rgb(100.0000%, 100.0000%, 100.0000%)">
<g transform="translate(2.0000, 6.2544)">
<rect x="0.0990" y="-0.5806" width="0.9902" height="1.1611" ry="0.0000" fill="currentColor"/>
</g>
</g>
<g transform="translate(2.0990, 6.8158)">
<text font-family="Roboto Serif" font-weight="bold" font-size="1.7459" text-anchor="start" fill="currentColor">
<tspan>0</tspan>
</text>
</g>
</g>
<g class="tab-note">
<g color="rgb(100.0000%, 100.0000%, 100.0000%)">
<g transform="translate(2.0000, 4.7544)">
<rect x="0.0990" y="-0.5701" width="0.9902" height="1.1402" ry="0.0000" fill="currentColor"/>
</g>
</g>
<g transform="translate(2.0990, 5.3245)">
<text font-family="Roboto Serif" font-weight="bold" font-size="1.7459" text-anchor="start" fill="currentColor">
<tspan>2</tspan>
</text>
</g>
</g>
<g class="tab-note">
<g color="rgb(100.0000%, 100.0000%, 100.0000%)">
<g transform="translate(2.0000, 3.2544)">
<rect x="0.0990" y="-0.5701" width="0.9902" height="1.1402" ry="0.0000" fill="currentColor"/>
</g>
</g>
<g transform="translate(2.0990, 3.8245)">
<text font-family="Roboto Serif" font-weight="bold" font-size="1.7459" text-anchor="start" fill="currentColor">
<tspan>2</tspan>
</text>
</g>
</g>
<g transform="translate(2.5941, 2.5044)">
<rect x="-0.0650" y="-4.5000" width="0.1300" height="4.4662" ry="0.0400" fill="currentColor"/>
</g>
<g class="tab-note">
<g color="rgb(100.0000%, 100.0000%, 100.0000%)">
<g transform="translate(5.4892, 6.2544)">
<rect x="0.0990" y="-0.5806" width="0.9902" height="1.1611" ry="0.0000" fill="currentColor"/>
</g>
</g>
<g transform="translate(5.5882, 6.8158)">
<text font-family="Roboto Serif" font-weight="bold" font-size="1.7459" text-anchor="start" fill="currentColor">
<tspan>0</tspan>
</text>
</g>
</g>
<g class="tab-note">
<g color="rgb(100.0000%, 100.0000%, 100.0000%)">
<g transform="translate(5.4892, 4.7544)">
<rect x="0.0990" y="-0.5701" width="0.9902" height="1.1402" ry="0.0000" fill="currentColor"/>
</g>
</g>
<g transform="translate(5.5882, 5.3245)">
<text font-family="Roboto Serif" font-weight="bold" font-size="1.7459" text-anchor="start" fill="currentColor">
<tspan>2</tspan>
</text>
</g>
</g>
<g class="tab-note">
<g color="rgb(100.0000%, 100.0000%, 100.0000%)">
<g transform="translate(5.4892, 3.2544)">
<rect x="0.0990" y="-0.5701" width="0.9902" height="1.1402" ry="0.0000" fill="currentColor"/>
</g>
</g>
<g transform="translate(5.5882, 3.8245)">
<text font-family="Roboto Serif" font-weight="bold" font-size="1.7459" text-anchor="start" fill="currentColor">
<tspan>2</tspan>
</text>
</g>
</g>
<g transform="translate(6.0833, 2.5044)">
<rect x="-0.0650" y="-3.7500" width="0.1300" height="3.7162" ry="0.0400" fill="currentColor"/>
</g>
<g class="chord-label">
<g transform="translate(7.5283, -4.0250)">
<text font-family="Roboto" font-weight="bold" font-style="italic" font-size="2.6165" text-anchor="start" fill="currentColor">
<tspan>F</tspan>
</text>
</g>
<g transform="translate(8.9282, -4.6250)">
<path transform="scale(0.0042, -0.0042)" d="M0 119c0 8 5 15 13 18l46 17v158c0 10 8 19 18 19s19 -9 19 -19v-145l83 31v158c0 10 9 19 19 19s18 -9 18 -19v-145l32 12c2 1 5 1 7 1c11 0 20 -9 20 -20v-60c0 -8 -5 -16 -13 -19l-46 -16v-160l32 11c2 1 5 1 7 1c11 0 20 -9 20 -20v-60c0 -8 -5 -15 -13 -18l-46 -17
v-158c0 -10 -8 -19 -18 -19s-19 9 -19 19v145l-83 -31v-158c0 -10 -9 -19 -19 -19s-18 9 -18 19v145l-32 -12c-2 -1 -5 -1 -7 -1c-11 0 -20 9 -20 20v60c0 8 5 16 13 19l46 16v160l-32 -11c-2 -1 -5 -1 -7 -1c-11 0 -20 9 -20 20v60zM179 95l-83 -30v-160l83 30v160z" fill="currentColor"/>
</g>
<g transform="translate(10.0936, -5.2142)">
<text font-family="Roboto" font-weight="bold" font-style="italic" font-size="1.8500" text-anchor="start" fill="currentColor">
<tspan>5</tspan>
</text>
</g>
</g>
<g class="tab-note">
<g color="rgb(100.0000%, 100.0000%, 100.0000%)">
<g transform="translate(7.7783, 6.2544)">
<rect x="0.0990" y="-0.5701" width="0.9902" height="1.1402" ry="0.0000" fill="currentColor"/>
</g>
</g>
<g transform="translate(7.8774, 6.8245)">
<text font-family="Roboto Serif" font-weight="bold" font-size="1.7459" text-anchor="start" fill="currentColor">
<tspan>2</tspan>
</text>
</g>
</g>
<g class="tab-note">
<g color="rgb(100.0000%, 100.0000%, 100.0000%)">
<g transform="translate(7.7783, 4.7544)">
<rect x="0.0990" y="-0.6120" width="0.9902" height="1.2240" ry="0.0000" fill="currentColor"/>
</g>
</g>
<g transform="translate(7.8774, 5.2564)">
<text font-family="Roboto Serif" font-weight="bold" font-size="1.7459" text-anchor="start" fill="currentColor">
<tspan>4</tspan>
</text>
</g>
</g>
<g class="tab-note">
<g color="rgb(100.0000%, 100.0000%, 100.0000%)">
<g transform="translate(7.7783, 3.2544)">
<rect x="0.0990" y="-0.6120" width="0.9902" height="1.2240" ry="0.0000" fill="currentColor"/>
</g>
</g>
<g transform="translate(7.8774, 3.7564)">
<text font-family="Roboto Serif" font-weight="bold" font-size="1.7459" text-anchor="start" fill="currentColor">
<tspan>4</tspan>
</text>
</g>
</g>
<g transform="translate(8.3724, 2.5044)">
<rect x="-0.0650" y="-3.7500" width="0.1300" height="3.7304" ry="0.0400" fill="currentColor"/>
</g>
<g class="chord-label">
<g transform="translate(12.2179, -4.0250)">
<text font-family="Roboto" font-weight="bold" font-style="italic" font-size="2.6165" text-anchor="start" fill="currentColor">
<tspan>G</tspan>
</text>
</g>
<g transform="translate(13.9592, -5.2142)">
<text font-family="Roboto" font-weight="bold" font-style="italic" font-size="1.8500" text-anchor="start" fill="currentColor">
<tspan>5</tspan>
</text>
</g>
</g>
<g class="tab-note">
<g color="rgb(100.0000%, 100.0000%, 100.0000%)">
<g transform="translate(12.4679, 6.2544)">
<rect x="0.0990" y="-0.6347" width="0.9902" height="1.2694" ry="0.0000" fill="currentColor"/>
</g>
</g>
<g transform="translate(12.5670, 6.7599)">
<text font-family="Roboto Serif" font-weight="bold" font-size="1.7459" text-anchor="start" fill="currentColor">
<tspan>3</tspan>
</text>
</g>
</g>
<g class="tab-note">
<g color="rgb(100.0000%, 100.0000%, 100.0000%)">
<g transform="translate(12.4679, 4.7544)">
<rect x="0.0990" y="-0.6251" width="0.9902" height="1.2502" ry="0.0000" fill="currentColor"/>
</g>
</g>
<g transform="translate(12.5670, 5.2503)">
<text font-family="Roboto Serif" font-weight="bold" font-size="1.7459" text-anchor="start" fill="currentColor">
<tspan>5</tspan>
</text>
</g>
</g>
<g class="tab-note">
<g color="rgb(100.0000%, 100.0000%, 100.0000%)">
<g transform="translate(12.4679, 3.2544)">
<rect x="0.0990" y="-0.6251" width="0.9902" height="1.2502" ry="0.0000" fill="currentColor"/>
</g>
</g>
<g transform="translate(12.5670, 3.7503)">
<text font-family="Roboto Serif" font-weight="bold" font-size="1.7459" text-anchor="start" fill="currentColor">
<tspan>5</tspan>
</text>
</g>
</g>
<g transform="translate(13.0620, 2.5044)">
<rect x="-0.0650" y="-4.5000" width="0.1300" height="4.3932" ry="0.0400" fill="currentColor"/>
</g>
<g class="tab-note">
<g color="rgb(100.0000%, 100.0000%, 100.0000%)">
<g transform="translate(15.9571, 6.2544)">
<rect x="0.0990" y="-0.6347" width="0.9902" height="1.2694" ry="0.0000" fill="currentColor"/>
</g>
</g>
<g transform="translate(16.0561, 6.7599)">
<text font-family="Roboto Serif" font-weight="bold" font-size="1.7459" text-anchor="start" fill="currentColor">
<tspan>3</tspan>
</text>
</g>
</g>
<g class="tab-note">
<g color="rgb(100.0000%, 100.0000%, 100.0000%)">
<g transform="translate(15.9571, 4.7544)">
<rect x="0.0990" y="-0.6251" width="0.9902" height="1.2502" ry="0.0000" fill="currentColor"/>
</g>
</g>
<g transform="translate(16.0561, 5.2503)">
<text font-family="Roboto Serif" font-weight="bold" font-size="1.7459" text-anchor="start" fill="currentColor">
<tspan>5</tspan>
</text>
</g>
</g>
<g class="tab-note">
<g color="rgb(100.0000%, 100.0000%, 100.0000%)">
<g transform="translate(15.9571, 3.2544)">
<rect x="0.0990" y="-0.6251" width="0.9902" height="1.2502" ry="0.0000" fill="currentColor"/>
</g>
</g>
<g transform="translate(16.0561, 3.7503)">
<text font-family="Roboto Serif" font-weight="bold" font-size="1.7459" text-anchor="start" fill="currentColor">
<tspan>5</tspan>
</text>
</g>
</g>
<g transform="translate(16.5512, 2.5044)">
<rect x="-0.0650" y="-4.5000" width="0.1300" height="4.3932" ry="0.0400" fill="currentColor"/>
</g>
<g class="chord-label">
<g transform="translate(20.4598, -4.0250)">
<text font-family="Roboto" font-weight="bold" font-style="italic" font-size="2.6165" text-anchor="start" fill="currentColor">
<tspan>C</tspan>
</text>
</g>
<g transform="translate(22.1328, -5.2142)">
<text font-family="Roboto" font-weight="bold" font-style="italic" font-size="1.8500" text-anchor="start" fill="currentColor">
<tspan>5</tspan>
</text>
</g>
</g>
<g class="tab-note">
<g color="rgb(100.0000%, 100.0000%, 100.0000%)">
<g transform="translate(20.7098, 4.7544)">
<rect x="0.0990" y="-0.6347" width="0.9902" height="1.2694" ry="0.0000" fill="currentColor"/>
</g>
</g>
<g transform="translate(20.8088, 5.2599)">
<text font-family="Roboto Serif" font-weight="bold" font-size="1.7459" text-anchor="start" fill="currentColor">
<tspan>3</tspan>
</text>
</g>
</g>
<g class="tab-note">
<g color="rgb(100.0000%, 100.0000%, 100.0000%)">
<g transform="translate(20.7098, 3.2544)">
<rect x="0.0990" y="-0.6251" width="0.9902" height="1.2502" ry="0.0000" fill="currentColor"/>
</g>
</g>
<g transform="translate(20.8088, 3.7503)">
<text font-family="Roboto Serif" font-weight="bold" font-size="1.7459" text-anchor="start" fill="currentColor">
<tspan>5</tspan>
</text>
</g>
</g>
<g class="tab-note">
<g color="rgb(100.0000%, 100.0000%, 100.0000%)">
<g transform="translate(20.7098, 1.7544)">
<rect x="0.0990" y="-0.6251" width="0.9902" height="1.2502" ry="0.0000" fill="currentColor"/>
</g>
</g>
<g transform="translate(20.8088, 2.2503)">
<text font-family="Roboto Serif" font-weight="bold" font-size="1.7459" text-anchor="start" fill="currentColor">
<tspan>5</tspan>
</text>
</g>
</g>
<g transform="translate(21.3039, 2.5044)">
<rect x="-0.0650" y="-5.7500" width="0.1300" height="4.1432" ry="0.0400" fill="currentColor"/>
</g>
<g class="chord-label">
<g transform="translate(24.2571, -4.0250)">
<text font-family="Roboto" font-weight="bold" font-style="italic" font-size="2.6165" text-anchor="start" fill="currentColor">
<tspan>A</tspan>
</text>
</g>
<g transform="translate(25.9643, -5.2142)">
<text font-family="Roboto" font-weight="bold" font-style="italic" font-size="1.8500" text-anchor="start" fill="currentColor">
<tspan>5</tspan>
</text>
</g>
</g>
<g class="tab-note">
<g color="rgb(100.0000%, 100.0000%, 100.0000%)">
<g transform="translate(24.5071, 6.2544)">
<rect x="0.0990" y="-0.6251" width="0.9902" height="1.2502" ry="0.0000" fill="currentColor"/>
</g>
</g>
<g transform="translate(24.6061, 6.7503)">
<text font-family="Roboto Serif" font-weight="bold" font-size="1.7459" text-anchor="start" fill="currentColor">
<tspan>5</tspan>
</text>
</g>
</g>
<g class="tab-note">
<g color="rgb(100.0000%, 100.0000%, 100.0000%)">
<g transform="translate(24.5071, 4.7544)">
<rect x="0.0990" y="-0.6129" width="0.9902" height="1.2257" ry="0.0000" fill="currentColor"/>
</g>
</g>
<g transform="translate(24.6061, 5.2625)">
<text font-family="Roboto Serif" font-weight="bold" font-size="1.7459" text-anchor="start" fill="currentColor">
<tspan>7</tspan>
</text>
</g>
</g>
<g class="tab-note">
<g color="rgb(100.0000%, 100.0000%, 100.0000%)">
<g transform="translate(24.5071, 3.2544)">
<rect x="0.0990" y="-0.6129" width="0.9902" height="1.2257" ry="0.0000" fill="currentColor"/>
</g>
</g>
<g transform="translate(24.6061, 3.7625)">
<text font-family="Roboto Serif" font-weight="bold" font-size="1.7459" text-anchor="start" fill="currentColor">
<tspan>7</tspan>
</text>
</g>
</g>
<g transform="translate(25.1012, 2.5044)">
<rect x="-0.0650" y="-4.5000" width="0.1300" height="4.4061" ry="0.0400" fill="currentColor"/>
</g>
<g class="chord-label">
<g transform="translate(28.0886, -4.0250)">
<text font-family="Roboto" font-weight="bold" font-style="italic" font-size="2.6165" text-anchor="start" fill="currentColor">
<tspan>D</tspan>
</text>
</g>
<g transform="translate(29.7616, -5.2142)">
<text font-family="Roboto" font-weight="bold" font-style="italic" font-size="1.8500" text-anchor="start" fill="currentColor">
<tspan>5</tspan>
</text>
</g>
</g>
<g class="tab-note">
<g color="rgb(100.0000%, 100.0000%, 100.0000%)">
<g transform="translate(28.3386, 4.7544)">
<rect x="0.0990" y="-0.6251" width="0.9902" height="1.2502" ry="0.0000" fill="currentColor"/>
</g>
</g>
<g transform="translate(28.4376, 5.2503)">
<text font-family="Roboto Serif" font-weight="bold" font-size="1.7459" text-anchor="start" fill="currentColor">
<tspan>5</tspan>
</text>
</g>
</g>
<g class="tab-note">
<g color="rgb(100.0000%, 100.0000%, 100.0000%)">
<g transform="translate(28.3386, 3.2544)">
<rect x="0.0990" y="-0.6129" width="0.9902" height="1.2257" ry="0.0000" fill="currentColor"/>
</g>
</g>
<g transform="translate(28.4376, 3.7625)">
<text font-family="Roboto Serif" font-weight="bold" font-size="1.7459" text-anchor="start" fill="currentColor">
<tspan>7</tspan>
</text>
</g>
</g>
<g class="tab-note">
<g color="rgb(100.0000%, 100.0000%, 100.0000%)">
<g transform="translate(28.3386, 1.7544)">
<rect x="0.0990" y="-0.6129" width="0.9902" height="1.2257" ry="0.0000" fill="currentColor"/>
</g>
</g>
<g transform="translate(28.4376, 2.2625)">
<text font-family="Roboto Serif" font-weight="bold" font-size="1.7459" text-anchor="start" fill="currentColor">
<tspan>7</tspan>
</text>
</g>
</g>
<g transform="translate(28.9326, 2.5044)">
<rect x="-0.0650" y="-5.7500" width="0.1300" height="4.1561" ry="0.0400" fill="currentColor"/>
</g>
<g class="chord-label">
<g transform="translate(31.8859, -4.0250)">
<text font-family="Roboto" font-weight="bold" font-style="italic" font-size="2.6165" text-anchor="start" fill="currentColor">
<tspan>B</tspan>
</text>
</g>
<g transform="translate(33.5248, -5.2142)">
<text font-family="Roboto" font-weight="bold" font-style="italic" font-size="1.8500" text-anchor="start" fill="currentColor">
<tspan>5</tspan>
</text>
</g>
</g>
<g class="tab-note">
<g color="rgb(100.0000%, 100.0000%, 100.0000%)">
<g transform="translate(63.1602, 1.7544)">
<rect x="0.0990" y="-0.6495" width="0.9902" height="1.2991" ry="0.0000" fill="currentColor"/>
</g>
</g>
<g transform="translate(63.2592, 2.2468)">
<text font-family="Roboto Serif" font-weight="bold" font-size="1.7459" text-anchor="start" fill="currentColor">
<tspan>9</tspan>
</text>
</g>
</g>
<g class="tab-note">
<g color="rgb(100.0000%, 100.0000%, 100.0000%)">
<g transform="translate(32.1359, 4.7544)">
<rect x="0.0990" y="-0.6495" width="0.9902" height="1.2991" ry="0.0000" fill="currentColor"/>
</g>
</g>
<g transform="translate(32.2349, 5.2468)">
<text font-family="Roboto Serif" font-weight="bold" font-size="1.7459" text-anchor="start" fill="currentColor">
<tspan>9</tspan>
</text>
</g>
</g>
<g class="tab-note">
<g color="rgb(100.0000%, 100.0000%, 100.0000%)">
<g transform="translate(32.1359, 3.2544)">
<rect x="0.0990" y="-0.6495" width="0.9902" height="1.2991" ry="0.0000" fill="currentColor"/>
</g>
</g>
<g transform="translate(32.2349, 3.7468)">
<text font-family="Roboto Serif" font-weight="bold" font-size="1.7459" text-anchor="start" fill="currentColor">
<tspan>9</tspan>
</text>
</g>
</g>
<g transform="translate(32.7300, 2.5044)">
<rect x="-0.0650" y="-4.5000" width="0.1300" height="4.4226" ry="0.0400" fill="currentColor"/>
</g>
<g transform="translate(6.0183, -1.2456)">
<polygon stroke-linejoin="round" stroke-linecap="round" stroke-width="0.0800" fill="currentColor" stroke="currentColor" points="2.3792 -0.2000 2.3792 0.2000 0.0400 0.2000 0.0400 -0.2000"/>
</g>
<g class="chord-label">
<g transform="translate(36.6399, -4.0250)">
<text font-family="Roboto" font-weight="bold" font-style="italic" font-size="2.6165" text-anchor="start" fill="currentColor">
<tspan>E</tspan>
</text>
</g>
<g transform="translate(38.0740, -5.2142)">
<text font-family="Roboto" font-weight="bold" font-style="italic" font-size="1.8500" text-anchor="start" fill="currentColor">
<tspan>5</tspan>
</text>
</g>
</g>
<g class="tab-note">
<g color="rgb(100.0000%, 100.0000%, 100.0000%)">
<g transform="translate(36.8899, 6.2544)">
<rect x="0.0990" y="-0.5806" width="0.9902" height="1.1611" ry="0.0000" fill="currentColor"/>
</g>
</g>
<g transform="translate(36.9889, 6.8158)">
<text font-family="Roboto Serif" font-weight="bold" font-size="1.7459" text-anchor="start" fill="currentColor">
<tspan>0</tspan>
</text>
</g>
</g>
<g class="tab-note">
<g color="rgb(100.0000%, 100.0000%, 100.0000%)">
<g transform="translate(36.8899, 3.2544)">
<rect x="0.0990" y="-0.5701" width="0.9902" height="1.1402" ry="0.0000" fill="currentColor"/>
</g>
</g>
<g transform="translate(36.9889, 3.8245)">
<text font-family="Roboto Serif" font-weight="bold" font-size="1.7459" text-anchor="start" fill="currentColor">
<tspan>2</tspan>
</text>
</g>
</g>
<g transform="translate(37.4840, 2.5044)">
<rect x="-0.0650" y="-4.5000" width="0.1300" height="4.4662" ry="0.0400" fill="currentColor"/>
</g>
<g class="tab-note">
<g color="rgb(100.0000%, 100.0000%, 100.0000%)">
<g transform="translate(40.3791, 6.2544)">
<rect x="0.0990" y="-0.5806" width="0.9902" height="1.1611" ry="0.0000" fill="currentColor"/>
</g>
</g>
<g transform="translate(40.4781, 6.8158)">
<text font-family="Roboto Serif" font-weight="bold" font-size="1.7459" text-anchor="start" fill="currentColor">
<tspan>0</tspan>
</text>
</g>
</g>
<g class="tab-note">
<g color="rgb(100.0000%, 100.0000%, 100.0000%)">
<g transform="translate(40.3791, 4.7544)">
<rect x="0.0990" y="-0.5701" width="0.9902" height="1.1402" ry="0.0000" fill="currentColor"/>
</g>
</g>
<g transform="translate(40.4781, 5.3245)">
<text font-family="Roboto Serif" font-weight="bold" font-size="1.7459" text-anchor="start" fill="currentColor">
<tspan>2</tspan>
</text>
</g>
</g>
<g class="tab-note">
<g color="rgb(100.0000%, 100.0000%, 100.0000%)">
<g transform="translate(40.3791, 3.2544)">
<rect x="0.0990" y="-0.5701" width="0.9902" height="1.1402" ry="0.0000" fill="currentColor"/>
</g>
</g>
<g transform="translate(40.4781, 3.8245)">
<text font-family="Roboto Serif" font-weight="bold" font-size="1.7459" text-anchor="start" fill="currentColor">
<tspan>2</tspan>
</text>
</g>
</g>
<g transform="translate(40.9732, 2.5044)">
<rect x="-0.0650" y="-3.7500" width="0.1300" height="3.7162" ry="0.0400" fill="currentColor"/>
</g>
<g class="chord-label">
<g transform="translate(42.4183, -4.0250)">
<text font-family="Roboto" font-weight="bold" font-style="italic" font-size="2.6165" text-anchor="start" fill="currentColor">
<tspan>F</tspan>
</text>
</g>
<g transform="translate(43.8181, -4.6250)">
<path transform="scale(0.0042, -0.0042)" d="M0 119c0 8 5 15 13 18l46 17v158c0 10 8 19 18 19s19 -9 19 -19v-145l83 31v158c0 10 9 19 19 19s18 -9 18 -19v-145l32 12c2 1 5 1 7 1c11 0 20 -9 20 -20v-60c0 -8 -5 -16 -13 -19l-46 -16v-160l32 11c2 1 5 1 7 1c11 0 20 -9 20 -20v-60c0 -8 -5 -15 -13 -18l-46 -17
v-158c0 -10 -8 -19 -18 -19s-19 9 -19 19v145l-83 -31v-158c0 -10 -9 -19 -19 -19s-18 9 -18 19v145l-32 -12c-2 -1 -5 -1 -7 -1c-11 0 -20 9 -20 20v60c0 8 5 16 13 19l46 16v160l-32 -11c-2 -1 -5 -1 -7 -1c-11 0 -20 9 -20 20v60zM179 95l-83 -30v-160l83 30v160z" fill="currentColor"/>
</g>
<g transform="translate(44.9836, -5.2142)">
<text font-family="Roboto" font-weight="bold" font-style="italic" font-size="1.8500" text-anchor="start" fill="currentColor">
<tspan>5</tspan>
</text>
</g>
</g>
<g class="tab-note">
<g color="rgb(100.0000%, 100.0000%, 100.0000%)">
<g transform="translate(42.6683, 6.2544)">
<rect x="0.0990" y="-0.5701" width="0.9902" height="1.1402" ry="0.0000" fill="currentColor"/>
</g>
</g>
<g transform="translate(42.7673, 6.8245)">
<text font-family="Roboto Serif" font-weight="bold" font-size="1.7459" text-anchor="start" fill="currentColor">
<tspan>2</tspan>
</text>
</g>
</g>
<g class="tab-note">
<g color="rgb(100.0000%, 100.0000%, 100.0000%)">
<g transform="translate(42.6683, 4.7544)">
<rect x="0.0990" y="-0.6120" width="0.9902" height="1.2240" ry="0.0000" fill="currentColor"/>
</g>
</g>
<g transform="translate(42.7673, 5.2564)">
<text font-family="Roboto Serif" font-weight="bold" font-size="1.7459" text-anchor="start" fill="currentColor">
<tspan>4</tspan>
</text>
</g>
</g>
<g class="tab-note">
<g color="rgb(100.0000%, 100.0000%, 100.0000%)">
<g transform="translate(42.6683, 3.2544)">
<rect x="0.0990" y="-0.6120" width="0.9902" height="1.2240" ry="0.0000" fill="currentColor"/>
</g>
</g>
<g transform="translate(42.7673, 3.7564)">
<text font-family="Roboto Serif" font-weight="bold" font-size="1.7459" text-anchor="start" fill="currentColor">
<tspan>4</tspan>
</text>
</g>
</g>
<g transform="translate(43.2624, 2.5044)">
<rect x="-0.0650" y="-3.7500" width="0.1300" height="3.7304" ry="0.0400" fill="currentColor"/>
</g>
<g transform="translate(66.9935, 2.5044)">
<rect x="-0.0650" y="-1.5000" width="0.1300" height="4.4226" ry="0.0400" fill="currentColor"/>
</g>
<g class="chord-label">
<g transform="translate(47.1079, -4.0250)">
<text font-family="Roboto" font-weight="bold" font-style="italic" font-size="2.6165" text-anchor="start" fill="currentColor">
<tspan>G</tspan>
</text>
</g>
<g transform="translate(48.8492, -5.2142)">
<text font-family="Roboto" font-weight="bold" font-style="italic" font-size="1.8500" text-anchor="start" fill="currentColor">
<tspan>5</tspan>
</text>
</g>
</g>
<g class="tab-note">
<g color="rgb(100.0000%, 100.0000%, 100.0000%)">
<g transform="translate(47.3579, 6.2544)">
<rect x="0.0990" y="-0.6347" width="0.9902" height="1.2694" ry="0.0000" fill="currentColor"/>
</g>
</g>
<g transform="translate(47.4569, 6.7599)">
<text font-family="Roboto Serif" font-weight="bold" font-size="1.7459" text-anchor="start" fill="currentColor">
<tspan>3</tspan>
</text>
</g>
</g>
<g class="tab-note">
<g color="rgb(100.0000%, 100.0000%, 100.0000%)">
<g transform="translate(47.3579, 4.7544)">
<rect x="0.0990" y="-0.6251" width="0.9902" height="1.2502" ry="0.0000" fill="currentColor"/>
</g>
</g>
<g transform="translate(47.4569, 5.2503)">
<text font-family="Roboto Serif" font-weight="bold" font-size="1.7459" text-anchor="start" fill="currentColor">
<tspan>5</tspan>
</text>
</g>
</g>
<g class="tab-note">
<g color="rgb(100.0000%, 100.0000%, 100.0000%)">
<g transform="translate(47.3579, 3.2544)">
<rect x="0.0990" y="-0.6251" width="0.9902" height="1.2502" ry="0.0000" fill="currentColor"/>
</g>
</g>
<g transform="translate(47.4569, 3.7503)">
<text font-family="Roboto Serif" font-weight="bold" font-size="1.7459" text-anchor="start" fill="currentColor">
<tspan>5</tspan>
</text>
</g>
</g>
<g transform="translate(47.9520, 2.5044)">
<rect x="-0.0650" y="-4.5000" width="0.1300" height="4.3932" ry="0.0400" fill="currentColor"/>
</g>
<g class="tab-note">
<g color="rgb(100.0000%, 100.0000%, 100.0000%)">
<g transform="translate(66.3994, 6.2544)">
<rect x="0.0990" y="-0.6129" width="0.9902" height="1.2257" ry="0.0000" fill="currentColor"/>
</g>
</g>
<g transform="translate(66.4984, 6.7625)">
<text font-family="Roboto Serif" font-weight="bold" font-size="1.7459" text-anchor="start" fill="currentColor">
<tspan>7</tspan>
</text>
</g>
</g>
<g class="tab-note">
<g color="rgb(100.0000%, 100.0000%, 100.0000%)">
<g transform="translate(50.8470, 6.2544)">
<rect x="0.0990" y="-0.6347" width="0.9902" height="1.2694" ry="0.0000" fill="currentColor"/>
</g>
</g>
<g transform="translate(50.9461, 6.7599)">
<text font-family="Roboto Serif" font-weight="bold" font-size="1.7459" text-anchor="start" fill="currentColor">
<tspan>3</tspan>
</text>
</g>
</g>
<g class="tab-note">
<g color="rgb(100.0000%, 100.0000%, 100.0000%)">
<g transform="translate(50.8470, 4.7544)">
<rect x="0.0990" y="-0.6251" width="0.9902" height="1.2502" ry="0.0000" fill="currentColor"/>
</g>
</g>
<g transform="translate(50.9461, 5.2503)">
<text font-family="Roboto Serif" font-weight="bold" font-size="1.7459" text-anchor="start" fill="currentColor">
<tspan>5</tspan>
</text>
</g>
</g>
<g class="tab-note">
<g color="rgb(100.0000%, 100.0000%, 100.0000%)">
<g transform="translate(50.8470, 3.2544)">
<rect x="0.0990" y="-0.6251" width="0.9902" height="1.2502" ry="0.0000" fill="currentColor"/>
</g>
</g>
<g transform="translate(50.9461, 3.7503)">
<text font-family="Roboto Serif" font-weight="bold" font-size="1.7459" text-anchor="start" fill="currentColor">
<tspan>5</tspan>
</text>
</g>
</g>
<g transform="translate(51.4411, 2.5044)">
<rect x="-0.0650" y="-4.5000" width="0.1300" height="4.3932" ry="0.0400" fill="currentColor"/>
</g>
<g class="chord-label">
<g transform="translate(55.3497, -4.0250)">
<text font-family="Roboto" font-weight="bold" font-style="italic" font-size="2.6165" text-anchor="start" fill="currentColor">
<tspan>D</tspan>
</text>
</g>
<g transform="translate(57.0227, -5.2142)">
<text font-family="Roboto" font-weight="bold" font-style="italic" font-size="1.8500" text-anchor="start" fill="currentColor">
<tspan>5</tspan>
</text>
</g>
</g>
<g class="tab-note">
<g color="rgb(100.0000%, 100.0000%, 100.0000%)">
<g transform="translate(55.5997, 4.7544)">
<rect x="0.0990" y="-0.6251" width="0.9902" height="1.2502" ry="0.0000" fill="currentColor"/>
</g>
</g>
<g transform="translate(55.6987, 5.2503)">
<text font-family="Roboto Serif" font-weight="bold" font-size="1.7459" text-anchor="start" fill="currentColor">
<tspan>5</tspan>
</text>
</g>
</g>
<g class="tab-note">
<g color="rgb(100.0000%, 100.0000%, 100.0000%)">
<g transform="translate(55.5997, 3.2544)">
<rect x="0.0990" y="-0.6129" width="0.9902" height="1.2257" ry="0.0000" fill="currentColor"/>
</g>
</g>
<g transform="translate(55.6987, 3.7625)">
<text font-family="Roboto Serif" font-weight="bold" font-size="1.7459" text-anchor="start" fill="currentColor">
<tspan>7</tspan>
</text>
</g>
</g>
<g class="tab-note">
<g color="rgb(100.0000%, 100.0000%, 100.0000%)">
<g transform="translate(55.5997, 1.7544)">
<rect x="0.0990" y="-0.6129" width="0.9902" height="1.2257" ry="0.0000" fill="currentColor"/>
</g>
</g>
<g transform="translate(55.6987, 2.2625)">
<text font-family="Roboto Serif" font-weight="bold" font-size="1.7459" text-anchor="start" fill="currentColor">
<tspan>7</tspan>
</text>
</g>
</g>
<g transform="translate(-0.0600, 2.5044)">
<rect x="0.0000" y="-3.8000" width="0.1600" height="7.6000" ry="0.0500" fill="currentColor"/>
</g>
<g transform="translate(56.1938, 2.5044)">
<rect x="-0.0650" y="-5.7500" width="0.1300" height="4.1561" ry="0.0400" fill="currentColor"/>
</g>
<g class="chord-label">
<g transform="translate(59.1470, -4.0250)">
<text font-family="Roboto" font-weight="bold" font-style="italic" font-size="2.6165" text-anchor="start" fill="currentColor">
<tspan>B</tspan>
</text>
</g>
<g transform="translate(60.7859, -5.2142)">
<text font-family="Roboto" font-weight="bold" font-style="italic" font-size="1.8500" text-anchor="start" fill="currentColor">
<tspan>5</tspan>
</text>
</g>
</g>
<g class="tab-note">
<g color="rgb(100.0000%, 100.0000%, 100.0000%)">
<g transform="translate(59.3970, 6.2544)">
<rect x="0.0990" y="-0.6129" width="0.9902" height="1.2257" ry="0.0000" fill="currentColor"/>
</g>
</g>
<g transform="translate(59.4960, 6.7625)">
<text font-family="Roboto Serif" font-weight="bold" font-size="1.7459" text-anchor="start" fill="currentColor">
<tspan>7</tspan>
</text>
</g>
</g>
<g class="tab-note">
<g color="rgb(100.0000%, 100.0000%, 100.0000%)">
<g transform="translate(59.3970, 4.7544)">
<rect x="0.0990" y="-0.6495" width="0.9902" height="1.2991" ry="0.0000" fill="currentColor"/>
</g>
</g>
<g transform="translate(59.4960, 5.2468)">
<text font-family="Roboto Serif" font-weight="bold" font-size="1.7459" text-anchor="start" fill="currentColor">
<tspan>9</tspan>
</text>
</g>
</g>
<g class="tab-note">
<g color="rgb(100.0000%, 100.0000%, 100.0000%)">
<g transform="translate(59.3970, 3.2544)">
<rect x="0.0990" y="-0.6495" width="0.9902" height="1.2991" ry="0.0000" fill="currentColor"/>
</g>
</g>
<g transform="translate(59.4960, 3.7468)">
<text font-family="Roboto Serif" font-weight="bold" font-size="1.7459" text-anchor="start" fill="currentColor">
<tspan>9</tspan>
</text>
</g>
</g>
<g transform="translate(59.9911, 2.5044)">
<rect x="-0.0650" y="-4.5000" width="0.1300" height="4.4226" ry="0.0400" fill="currentColor"/>
</g>
<g transform="translate(63.7543, 2.5044)">
<rect x="-0.0650" y="-5.7500" width="0.1300" height="4.1726" ry="0.0400" fill="currentColor"/>
</g>
<g class="chord-label">
<g transform="translate(62.9102, -4.0250)">
<text font-family="Roboto" font-weight="bold" font-style="italic" font-size="2.6165" text-anchor="start" fill="currentColor">
<tspan>E</tspan>
</text>
</g>
<g transform="translate(64.3442, -5.2142)">
<text font-family="Roboto" font-weight="bold" font-style="italic" font-size="1.8500" text-anchor="start" fill="currentColor">
<tspan>5</tspan>
</text>
</g>
</g>
<g class="tab-note">
<g color="rgb(100.0000%, 100.0000%, 100.0000%)">
<g transform="translate(63.1602, 4.7544)">
<rect x="0.0990" y="-0.6129" width="0.9902" height="1.2257" ry="0.0000" fill="currentColor"/>
</g>
</g>
<g transform="translate(63.2592, 5.2625)">
<text font-family="Roboto Serif" font-weight="bold" font-size="1.7459" text-anchor="start" fill="currentColor">
<tspan>7</tspan>
</text>
</g>
</g>
<g class="tab-note">
<g color="rgb(100.0000%, 100.0000%, 100.0000%)">
<g transform="translate(32.1359, 6.2544)">
<rect x="0.0990" y="-0.6129" width="0.9902" height="1.2257" ry="0.0000" fill="currentColor"/>
</g>
</g>
<g transform="translate(32.2349, 6.7625)">
<text font-family="Roboto Serif" font-weight="bold" font-size="1.7459" text-anchor="start" fill="currentColor">
<tspan>7</tspan>
</text>
</g>
</g>
</svg>
