<?xml version="1.0" encoding="UTF-8"?>
<!-- Created with EazyDraw for Mac ( http://www.eazydraw.com/ ) -->

<svg
    version="1.1"
    xmlns:dc="http://purl.org/dc/elements/1.1/"
    xmlns:cc="http://creativecommons.org/ns#"
    xmlns:rdf="http://www.w3.org/1999/02/22-rdf-syntax-ns#"
    xmlns:svg="http://www.w3.org/2000/svg"
    xmlns:xlink="http://www.w3.org/1999/xlink"
    xmlns="http://www.w3.org/2000/svg"
    width="61"
    height="61"
    viewBox="0, 0, 61, 61"
    preserveAspectRatio="none"
    id="svg2">
   <defs
       id="defs_012CAE4F"/>
   <metadata
       id="metadata7">
      <rdf:RDF>
         <cc:Work
             rdf:about="">
            <dc:format>image/svg+xml</dc:format>
            <dc:type rdf:resource="http://purl.org/dc/dcmitype/StillImage"/>
            <dc:title></dc:title>
         </cc:Work>
      </rdf:RDF>
   </metadata>
   <g
       id="layer_Paper"
       style="fill:#000000;fill-opacity:1;stroke:#000000;stroke-opacity:1;fill-rule:nonzero;stroke-linecap:square;stroke-linejoin:miter;stroke-width:1;stroke-miterlimit:10">
      <path
          style="fill:#D8D8D8;stroke:#D8D8D8;fill-rule:evenodd;stroke-linecap:butt;stroke-miterlimit:4"
          id="BD7D4B4F"
          d="M30.5,60.5 C47.068543,60.5 60.5,47.068543 60.5,30.5 C60.5,13.9314567 47.068543,0.5 30.5,0.5 C13.931457,0.5 0.5,13.9314567 0.5,30.5 C0.5,47.068543 13.931457,60.5 30.5,60.5 z M22.853556,44.636954 L16.064711,44.636954
L16.064711,24.209814 L22.853556,24.209814 L22.853556,44.636954 z M19.459269,21.4216886 L19.415885,21.4216886 C17.136712,21.4216886 15.663269,19.8522579 15.663269,17.8908761 C15.663269,15.8880081 17.181588,14.362504 19.504009,14.362504
C21.826431,14.362504 23.256625,15.8880081 23.300687,17.8908761 C23.300687,19.8522579 21.826431,21.4216886 19.459269,21.4216886 z M47.336459,44.636954 L40.547885,44.636954 L40.547885,33.708423 C40.547885,30.96341 39.565499,29.090289 37.107909,29.090289
C35.232347,29.090289 34.115198,30.353046 33.624548,31.57269 C33.445045,32.009788 33.400983,32.618796 33.400983,33.229296 L33.400983,44.637496 L26.611323,44.637496 C26.611323,44.637496 26.700804,26.127134 26.611323,24.210357
L33.400983,24.210357 L33.400983,27.10369 C34.302022,25.712813 35.915787,23.730146 39.520217,23.730146 C43.98759,23.730146 47.336731,26.650323 47.336731,32.924656 L47.336459,44.636954 z"/>
   </g>
</svg>
