<?xml version="1.0" encoding="UTF-8"?>
<!-- Created with EazyDraw for Mac ( http://www.eazydraw.com/ ) -->

<svg
    version="1.1"
    xmlns:dc="http://purl.org/dc/elements/1.1/"
    xmlns:cc="http://creativecommons.org/ns#"
    xmlns:rdf="http://www.w3.org/1999/02/22-rdf-syntax-ns#"
    xmlns:svg="http://www.w3.org/2000/svg"
    xmlns:xlink="http://www.w3.org/1999/xlink"
    xmlns="http://www.w3.org/2000/svg"
    width="60"
    height="60"
    viewBox="0, 0, 60, 60"
    preserveAspectRatio="none"
    id="svg2">
   <defs
       id="defs_114B605F"/>
   <metadata
       id="metadata7">
      <rdf:RDF>
         <cc:Work
             rdf:about="">
            <dc:format>image/svg+xml</dc:format>
            <dc:type rdf:resource="http://purl.org/dc/dcmitype/StillImage"/>
            <dc:title></dc:title>
         </cc:Work>
      </rdf:RDF>
   </metadata>
   <g
       id="layer_Paper"
       style="fill:#000000;fill-opacity:1;stroke:#000000;stroke-opacity:1;fill-rule:nonzero;stroke-linecap:square;stroke-linejoin:miter;stroke-width:1;stroke-miterlimit:10">
      <path
          style="stroke:none;fill-rule:evenodd"
          id="B7ABCF4F"
          d="M30,60 C46.568543,60 60,46.568543 60,30 C60,13.4314567 46.568543,0 30,0 C13.431457,0 0,13.4314567 0,30 C0,46.568543 13.431457,60 30,60 z M22.353556,44.136954 L15.564711,44.136954 L15.564711,23.709814 L22.353556,23.709814
L22.353556,44.136954 z M18.959269,20.921689 L18.915885,20.921689 C16.636712,20.921689 15.163269,19.352258 15.163269,17.3908761 C15.163269,15.3880081 16.681588,13.862504 19.004009,13.862504 C21.326431,13.862504 22.756625,15.3880081 22.800687,17.3908761
C22.800687,19.352258 21.326431,20.921689 18.959269,20.921689 z M46.836459,44.136954 L40.047885,44.136954 L40.047885,33.208423 C40.047885,30.46341 39.065499,28.590289 36.607909,28.590289 C34.732347,28.590289 33.615198,29.853046 33.124548,31.07269
C32.945045,31.509788 32.900983,32.118796 32.900983,32.729296 L32.900983,44.137496 L26.111323,44.137496 C26.111323,44.137496 26.200804,25.627134 26.111323,23.710357 L32.900983,23.710357 L32.900983,26.60369
C33.802022,25.212813 35.415787,23.230146 39.020217,23.230146 C43.48759,23.230146 46.836731,26.150323 46.836731,32.424656 L46.836459,44.136954 z"/>
   </g>
</svg>
